<svg width="120" height="131" viewBox="0 0 120 131" fill="none" xmlns="http://www.w3.org/2000/svg">
<g clip-path="url(#clip0_128_1333)">
<path d="M45.0264 32.9419H47.475L49.2329 33.1338L51.0537 33.5176L52.7488 34.0293L54.1301 34.605L55.6997 35.3726L56.767 36.0122L57.7088 36.6519L58.9017 37.5474L59.7806 38.3149L60.4085 38.8906L61.413 39.8501L61.9781 40.4897L62.6687 41.2573L63.2338 41.9609L63.7988 42.7285L64.05 42.6006L64.9289 41.6411L65.7451 40.8735L66.5613 40.1699L67.6914 39.3384L68.6332 38.6987L69.9517 37.9312L71.6468 37.0996L73.1536 36.5239L74.786 36.0122L76.4812 35.6284L78.3019 35.3726L79.0553 35.3086H82.2573L84.0153 35.5005L85.7732 35.8203L87.6567 36.332L89.2263 36.9077L90.7959 37.6113L91.9888 38.251L93.3073 39.0825L94.5002 39.978L95.3164 40.6816L96.0698 41.3853L97.0115 42.3447L97.5766 43.0483L98.3928 44.1357L99.0834 45.2231L99.6485 46.2466L100.339 47.7178L100.779 48.8691L101.218 50.4043L101.595 52.2593L101.783 53.9224V57.3125L101.595 59.1035L101.281 60.8945L100.716 63.1973L100.088 65.0522L99.5229 66.3955L98.7695 67.9946L97.8905 69.5938L96.9488 71.1289L96.0698 72.4082L95.1908 73.6235L94.3746 74.647L93.8723 75.2866L93.1817 76.1182L92.6167 76.7578L92.1772 77.2695L91.4866 78.0371L90.6076 78.9966L88.4101 81.2354L87.9079 81.6831L87.4056 82.1948L86.9033 82.6426L86.0871 83.4102L85.3965 83.9858L84.6431 84.6895L83.9525 85.2651L83.1363 85.9688L82.2573 86.6724L81.19 87.5679L79.5576 88.8472L78.2391 89.8706L77.3602 90.5103L75.0999 92.1733L73.907 93.0049L72.5886 93.9004L72.6514 94.4761L72.7769 95.3716V97.0986L72.5258 98.7617L71.9607 101.128L71.898 101.896L71.7724 108.165L71.6468 114.817L71.5213 116.16L71.2073 117.759L70.8306 119.039L70.2656 120.574L69.5122 122.301L68.9471 123.132L68.0681 124.028L67.4403 124.476L66.8125 124.859L66.5613 125.883L66.1846 127.034L65.5568 128.25L64.8662 129.145L64.3639 129.657L63.736 130.104L62.7315 130.616L61.9153 130.872L61.1619 131H59.7806L58.525 130.808L57.2065 130.36L56.202 129.785L55.3858 129.081L54.8835 128.505L54.3184 127.61L53.879 126.586L53.6278 125.755L52.6861 125.307L51.7443 124.795L50.8653 124.156L49.9863 123.388L49.2957 122.621L48.7307 121.789L48.2284 120.894L47.7261 119.55L47.2866 117.823L46.9727 116.096L46.7844 114.497L46.7216 113.346V111.747L46.8471 109.892L47.1611 107.461L47.5378 104.902L47.6633 103.367V102.728L47.5378 101.384L46.7844 96.5229L46.596 94.9238V92.4932L46.7216 91.7256V91.4058L46.2193 90.958L45.4659 90.2544L44.9636 89.8066L44.1474 89.0391L43.5196 88.4634L42.5778 87.5679L41.5733 86.6084L41.071 86.0967L40.5688 85.6489L39.3131 84.3696L38.8108 83.9219L36.5506 81.6191L36.1111 81.1074L34.9182 79.8921L34.4787 79.3804L33.9764 78.8687L33.5369 78.3569L32.5952 77.3335L32.1557 76.8218L31.5906 76.1821L31.0256 75.4785L30.3977 74.7749L29.8327 74.0713L29.1421 73.2397L28.6398 72.6001L27.9492 71.7046L27.3213 70.873L26.4424 69.6577L25.6889 68.5703L24.5588 66.8433L23.7426 65.5L22.9892 64.0928L22.5497 63.1333L21.9847 61.4062L21.6708 59.8711L21.5452 58.8477L21.4824 57.2485L21.608 55.3296L21.8591 53.7944L22.2986 52.0034L22.9265 50.1484L23.6799 48.4214L24.4333 46.9502L25.4378 45.2871L26.254 44.1357L26.8818 43.3042L27.4469 42.6006L28.012 41.9609L28.4514 41.4492L30.0838 39.7861L30.7745 39.2104L31.3395 38.6987L32.5952 37.7393L33.5997 37.0356L34.9182 36.2041L36.5506 35.3086L38.1202 34.605L39.627 34.0293L41.3849 33.5176L43.3312 33.1338L45.0264 32.9419ZM45.4031 37.8672L44.0847 37.9951L42.4523 38.3149L40.9455 38.7627L39.627 39.2744L38.0574 40.042L36.7389 40.8096L35.546 41.6411L34.4787 42.4727L33.5997 43.2402L32.7835 44.0078L31.8418 44.9673L31.4023 45.479L30.7117 46.3105L29.9583 47.334L29.0793 48.6772L28.3259 50.0205L27.5725 51.6196L27.0074 53.2188L26.6307 54.6899L26.4424 55.7773L26.3796 56.353V58.4639L26.6307 59.999L27.0702 61.3423L27.5725 62.3657L28.577 64.0928L29.5816 65.6279L30.335 66.7153L31.2139 67.9307L32.5952 69.7217L33.4742 70.8091L34.2276 71.7046L34.7926 72.4082L35.546 73.2397L35.9855 73.7515L36.5506 74.3911L37.2412 75.1587L37.9946 75.9902L38.4341 76.438L38.8736 76.9497L40.506 78.6128L40.9455 79.1245L41.8244 80.02L42.3267 80.4678L44.1474 82.3228L44.6497 82.7705L45.3403 83.4741L45.8426 83.9219L46.2821 84.3696L46.7844 84.8174L47.7889 85.7769L48.4167 86.3525L49.1702 87.0562L49.6724 87.5039L50.3631 88.1436L50.6142 88.3354L52.6861 88.0156L54.1301 87.8877L55.3858 87.8237H58.7133L61.0363 87.9517L63.3593 88.2075L65.1801 88.5273L66.7497 88.9111L68.2565 89.4229L69.3866 89.9346L69.6377 89.9985L71.6468 88.5913L72.7141 87.8237L74.9744 86.1606L76.2928 85.1372L77.2974 84.3696L78.3019 83.5381L79.1181 82.8984L80.1854 82.0029L81.0016 81.2993L81.6923 80.7236L82.3829 80.084L82.8852 79.6362L84.1408 78.4849L84.957 77.7173L85.5221 77.1416L86.0244 76.6938L87.2172 75.4785L87.6567 74.9668L88.2846 74.3271L88.7241 73.8154L89.3519 73.1118L89.917 72.4082L90.6704 71.5127L91.2982 70.6812L92.0516 69.6577L92.9934 68.2505L93.8096 66.9072L94.4374 65.7559L95.1908 64.2207L95.8187 62.5576L96.2581 61.0864L96.6348 59.3594L96.886 57.5684L96.9488 56.8008V54.498L96.7604 52.835L96.4465 51.3638L95.9442 49.8286L95.4419 48.6772L94.7513 47.4619L94.1235 46.5664L93.5584 45.8628L92.8678 45.0952L92.3028 44.5195L91.6121 43.9438L90.4192 43.0483L89.1008 42.2808L87.6567 41.5771L86.2755 41.0654L84.5803 40.6177L83.1363 40.3618L81.8806 40.2339H79.3693L77.6741 40.4258L75.8533 40.8096L73.7815 41.5132L72.2747 42.2168L70.8934 43.0483L70.0144 43.688L69.3238 44.2637L68.696 44.8394L68.1937 45.2871L67.3147 46.2466L66.6241 47.1421L65.8707 48.2295L65.494 48.7412L65.0545 49.125L64.4894 49.3809L64.2383 49.4448H63.2966L62.6059 49.189L62.0409 48.7412L61.5386 48.0376L60.9735 47.1421L60.3457 46.2466L59.7179 45.415L59.1528 44.7114L58.525 44.0078L58.0855 43.4961L57.0182 42.4087L56.5159 41.9609L55.5741 41.1934L54.5068 40.4258L53 39.5303L51.6187 38.8906L50.1119 38.3789L48.7307 38.0591L47.0983 37.8672H45.4031ZM55.8253 92.6851L53.6906 92.813L51.8699 93.0688L51.4304 93.1968L51.3676 93.3247L51.4304 94.604L51.8071 97.2905L52.3721 100.937L52.4977 102.344V103.751L52.3721 105.286L52.0582 107.525L51.7443 109.7V110.147L53.3767 111.107L54.5696 111.747L56.1392 112.386L57.2693 112.706L58.1483 112.834H58.9645L59.969 112.642L60.9735 112.13L61.5386 111.875H62.2292L62.7315 112.13L63.0454 112.45L63.2966 112.834L63.4221 113.218V114.177L63.171 114.689L62.8571 115.009L62.292 115.393L61.5386 115.776L60.5341 116.096L59.8434 116.224H57.8343L56.4531 115.968L54.8207 115.457L53.3139 114.817L51.7443 114.049L51.6187 114.113L51.8699 116.032L52.3094 117.951L52.6861 118.911L53.1883 119.614L53.8162 120.254L54.5068 120.702L55.4486 121.149L56.2647 121.405L57.2065 121.597L58.5878 121.725H59.5923L60.9735 121.597L62.5431 121.277L63.8616 120.83L64.7406 120.382L65.2429 119.934L65.9335 118.335L66.4985 116.608L66.7497 115.265L66.8125 114.433L66.938 107.589L67.0008 104.391L66.6869 104.519L65.5568 105.158L63.9872 105.798L62.5431 106.246L61.0363 106.565L59.7179 106.757L58.0855 106.885H57.0182L56.4531 106.693L56.1392 106.438L55.8253 105.862L55.7625 105.67V104.774L56.0136 104.135L56.3275 103.815L56.7042 103.559L56.9554 103.495L59.5295 103.303L61.0991 103.047L62.3548 102.728L63.4221 102.344L64.7406 101.704L65.7451 101L66.4985 100.297L66.938 99.8491L67.4403 99.1455L67.8798 97.2266L67.9426 96.7788V95.6914L67.7542 94.9878L67.4403 94.4121L66.4358 93.9004L64.8662 93.4526L63.2338 93.1328L61.2247 92.877L59.7179 92.749L58.211 92.6851H55.8253ZM62.6059 126.267L60.7852 126.522L59.9062 126.586H57.8971L58.1483 126.906L59.0272 127.354L59.7179 127.482H60.5341L61.2875 127.354L61.8525 127.098L62.2292 126.842L62.6687 126.395L62.6059 126.267Z" fill="#FF8DCA"/>
<path d="M10.0556 20.1489H10.8091L11.5625 20.4688L13.2576 21.3643L14.9528 22.3877L16.334 23.2832L19.0965 25.1382L20.7289 26.2256L22.1102 27.1211L22.6124 27.6968L22.738 28.0806V28.8481L22.4869 29.4878L22.0474 29.9995L21.6079 30.2554L21.4823 30.3193H20.6661L19.7872 29.8716L18.7198 29.168L16.5224 27.6968L14.8272 26.5454L13.6343 25.7778L12.0647 24.8184L10.9346 24.1787L9.49059 23.4111L8.98832 23.0913L8.73718 22.7715L8.54883 22.2598L8.61161 21.5562L8.92553 20.9165L9.36502 20.4688L9.86729 20.2129L10.0556 20.1489Z" fill="#FF8DCA"/>
<path d="M62.2913 0H62.9819L63.4842 0.191895L63.7981 0.511719L64.0492 0.895508L64.3004 2.04688L64.4887 3.58203L64.6143 5.75684V9.08301L64.5515 12.2173L64.3632 12.793L64.0492 13.2407L63.4842 13.5605L62.9819 13.6885L62.2913 13.6245L61.7262 13.3687L61.2867 12.9209L61.0984 12.4731V5.11719L60.91 3.13428L60.7217 1.72705L60.8472 1.15137L61.224 0.575684L61.7262 0.191895L62.2913 0Z" fill="#FF8DCA"/>
<path d="M78.239 45.479H80.3736L81.7549 45.6709L82.9478 45.9907L84.2662 46.5024L85.3963 47.1421L86.2753 47.7817L87.2171 48.6772L87.8449 49.4448L88.096 49.9565V50.7241L87.8449 51.2358L87.4054 51.6196L86.9031 51.8755L86.652 51.9395H85.8986L85.2708 51.6836L84.7685 51.2358L84.329 50.7241L83.8267 50.2764L82.9478 49.7646L81.9432 49.3809L80.6875 49.125L80.1225 49.061L77.8622 48.9971L77.36 48.7412L76.9833 48.2935L76.7949 47.7817V46.9502L76.9833 46.3745L77.4855 45.7988L77.9878 45.543L78.239 45.479Z" fill="#FF8DCA"/>
<path d="M110.196 65.1162H110.95L111.452 65.3081L112.456 66.0757L113.461 66.6514L114.654 67.2271L116.224 67.8027L118.295 68.4424L119.237 68.7622L119.677 69.146L119.928 69.6577L119.991 69.8496V70.6812L119.739 71.3208L119.363 71.7686L118.735 72.0884H118.044L116.098 71.5127L114.089 70.8091L112.456 70.1055L111.138 69.4019L109.82 68.5063L109.129 67.9307L108.752 67.4189L108.689 67.2271V66.5234L109.003 65.8838L109.568 65.3721L110.196 65.1162Z" fill="#FF8DCA"/>
<path d="M1.39101 61.2144H1.95607L2.58391 61.4702L3.58845 61.9819L4.71856 62.3657L5.84868 62.5576L6.47652 62.6216L9.55293 62.6855L10.118 62.8774L10.5575 63.1973L10.8086 63.5811L10.997 64.3486L10.9342 64.9883L10.6203 65.6279L10.118 66.0757L9.80407 66.2036H6.5393L5.15805 66.0757L3.52567 65.7559L2.2072 65.3081L1.20266 64.7964L0.512037 64.3486L0.135334 63.8369L0.00976562 63.4531V62.7495L0.198118 62.1738L0.637605 61.5981L1.01431 61.3423L1.39101 61.2144Z" fill="#FF8DCA"/>
<path d="M109.065 23.4111H109.882L110.384 23.667L110.823 24.1787L111.074 24.8823V25.522L110.823 26.2256L110.384 26.6733L109.819 26.9292L108.124 27.5049L106.303 28.2725L104.231 29.2959L103.352 29.6797L102.724 29.7437L102.096 29.5518L101.594 29.168L101.217 28.5923L101.092 28.2725V27.4409L101.343 26.9292L101.845 26.4814L104.294 25.2661L106.177 24.4346L107.872 23.7949L109.065 23.4111Z" fill="#FF8DCA"/>
<path d="M22.6749 89.4868H23.24L23.8678 89.7427L24.3701 90.1904L24.684 90.8301L24.7468 91.3418L24.5585 91.9814L23.9306 93.2607L23.1772 94.4121L22.6749 95.0518L22.1099 95.6914L21.5448 96.2671L20.6658 96.9707L19.9124 97.4824L19.5985 97.6104L19.0335 97.6743L18.4056 97.4824L17.7778 96.9067L17.4639 96.1392V95.4355L17.715 94.7959L18.2801 94.2842L19.159 93.6445L19.7869 93.0688L20.3519 92.3652L20.9798 91.4058L21.482 90.3823L21.9215 89.8706L22.4238 89.5508L22.6749 89.4868Z" fill="#FF8DCA"/>
<path d="M98.016 93.7725H98.6439L99.3345 94.0283L99.7112 94.3481L100.025 94.9238L100.088 95.2437L100.213 96.6509L100.465 97.5464L100.779 98.314L101.344 99.1455L101.971 99.9131L102.16 100.553L102.097 101.192L101.783 101.832L101.218 102.344L100.716 102.536H99.9623L99.3345 102.216L98.6439 101.448L98.016 100.553L97.451 99.5293L97.0115 98.314L96.6975 96.9707L96.6348 96.459V94.9878L96.9487 94.3481L97.3254 94.0283L97.7021 93.8364L98.016 93.7725Z" fill="#FF8DCA"/>
<path d="M88.159 53.0269H89.038L89.603 53.2827L90.0425 53.7944L90.2309 54.2422L90.2937 54.8818L90.1053 55.6494L89.7286 56.1611L89.1635 56.481L88.9124 56.5449H88.2846L87.7195 56.353L87.28 55.9692L86.9661 55.3296L86.9033 55.0737V54.498L87.0917 53.8584L87.6567 53.2188L88.159 53.0269Z" fill="#FF8DCA"/>
</g>
<defs>
<clipPath id="clip0_128_1333">
<rect width="120" height="131" fill="white"/>
</clipPath>
</defs>
</svg>
