<svg width="306" height="146" viewBox="0 0 306 146" fill="none" xmlns="http://www.w3.org/2000/svg">
<path d="M132.031 72.6562C132.031 87.6302 129.167 100.618 123.438 111.621C117.773 122.559 109.928 130.924 99.9023 136.719C89.9414 142.448 78.6458 145.312 66.0156 145.312C53.3854 145.312 42.0573 142.448 32.0312 136.719C22.0703 130.924 14.2253 122.526 8.49609 111.523C2.83203 100.521 0 87.5651 0 72.6562C0 57.5521 2.83203 44.5312 8.49609 33.5938C14.2253 22.6562 22.0703 14.3229 32.0312 8.59375C42.0573 2.86458 53.3854 0 66.0156 0C78.6458 0 89.9414 2.86458 99.9023 8.59375C109.928 14.3229 117.773 22.6562 123.438 33.5938C129.167 44.5312 132.031 57.5521 132.031 72.6562ZM102.344 72.6562C102.344 62.6953 100.846 54.2318 97.8516 47.2656C94.9219 40.2995 90.7227 35.026 85.2539 31.4453C79.8503 27.7995 73.4375 25.9766 66.0156 25.9766C58.6589 25.9766 52.2461 27.7995 46.7773 31.4453C41.3737 35.026 37.1745 40.2995 34.1797 47.2656C31.1849 54.2318 29.6875 62.6953 29.6875 72.6562C29.6875 82.6172 31.1849 91.0807 34.1797 98.0469C37.1745 105.013 41.3737 110.319 46.7773 113.965C52.2461 117.546 58.6589 119.336 66.0156 119.336C73.4375 119.336 79.8503 117.546 85.2539 113.965C90.7227 110.319 94.9219 105.013 97.8516 98.0469C100.846 91.0807 102.344 82.6172 102.344 72.6562ZM181.543 143.359H152.637V37.3047H180.176V55.8594H181.348C183.822 49.6094 187.793 44.7266 193.262 41.2109C198.796 37.6953 205.469 35.9375 213.281 35.9375C220.638 35.9375 227.051 37.5326 232.52 40.7227C237.988 43.9128 242.22 48.5026 245.215 54.4922C248.275 60.4818 249.805 67.5781 249.805 75.7812V143.359H220.898V80.7617C220.898 76.3997 220.15 72.6888 218.652 69.6289C217.22 66.5039 215.072 64.1276 212.207 62.5C209.342 60.8073 205.892 59.9609 201.855 59.9609C197.819 59.9609 194.271 60.8398 191.211 62.5977C188.151 64.2904 185.775 66.7969 184.082 70.1172C182.389 73.3724 181.543 77.3112 181.543 81.9336V143.359ZM289.062 145.117C286.133 145.117 283.398 144.368 280.859 142.871C278.32 141.309 276.335 139.29 274.902 136.816C273.47 134.277 272.754 131.543 272.754 128.613C272.754 125.749 273.47 123.079 274.902 120.605C276.335 118.066 278.32 116.081 280.859 114.648C283.398 113.216 286.133 112.5 289.062 112.5C291.992 112.5 294.694 113.216 297.168 114.648C299.707 116.081 301.725 118.066 303.223 120.605C304.72 123.079 305.469 125.749 305.469 128.613C305.469 131.543 304.72 134.277 303.223 136.816C301.725 139.29 299.707 141.309 297.168 142.871C294.694 144.368 291.992 145.117 289.062 145.117ZM289.062 70.7031C286.133 70.7031 283.398 69.9544 280.859 68.457C278.32 66.8945 276.335 64.8763 274.902 62.4023C273.47 59.8633 272.754 57.1289 272.754 54.1992C272.754 51.3346 273.47 48.6654 274.902 46.1914C276.335 43.6523 278.32 41.6667 280.859 40.2344C283.398 38.8021 286.133 38.0859 289.062 38.0859C291.992 38.0859 294.694 38.8021 297.168 40.2344C299.707 41.6667 301.725 43.6523 303.223 46.1914C304.72 48.6654 305.469 51.3346 305.469 54.1992C305.469 57.1289 304.72 59.8633 303.223 62.4023C301.725 64.8763 299.707 66.8945 297.168 68.457C294.694 69.9544 291.992 70.7031 289.062 70.7031Z" fill="#FFD000"/>
</svg>
