<svg width="44" height="23" viewBox="0 0 44 23" fill="none" xmlns="http://www.w3.org/2000/svg">
<path d="M6.76797 6.79195H9.76797V18.24C9.76797 18.832 9.83997 19.208 9.98397 19.368C10.144 19.512 10.512 19.584 11.088 19.584C11.2 19.584 11.408 19.584 11.712 19.584C12.016 19.584 12.344 19.584 12.696 19.584C13.048 19.584 13.376 19.584 13.68 19.584C13.984 19.584 14.216 19.584 14.376 19.584C14.76 19.584 15.048 19.472 15.24 19.248C15.448 19.008 15.6 18.56 15.696 17.904C15.792 17.248 15.864 16.296 15.912 15.048C16.248 15.304 16.68 15.552 17.208 15.792C17.736 16.016 18.2 16.184 18.6 16.296C18.504 17.784 18.328 18.968 18.072 19.848C17.816 20.712 17.416 21.32 16.872 21.672C16.328 22.04 15.568 22.224 14.592 22.224C14.464 22.224 14.264 22.224 13.992 22.224C13.736 22.224 13.44 22.224 13.104 22.224C12.784 22.224 12.464 22.224 12.144 22.224C11.824 22.224 11.528 22.224 11.256 22.224C11 22.224 10.816 22.224 10.704 22.224C9.67997 22.224 8.87997 22.096 8.30397 21.84C7.74397 21.6 7.34397 21.192 7.10397 20.616C6.87997 20.04 6.76797 19.248 6.76797 18.24V6.79195ZM6.83997 2.23195L8.71197 -4.52995e-05C9.67197 0.335954 10.648 0.743954 11.64 1.22395C12.632 1.70395 13.576 2.19995 14.472 2.71195C15.368 3.22395 16.136 3.71995 16.776 4.19995L14.88 6.71995C14.256 6.20795 13.496 5.67995 12.6 5.13595C11.72 4.57595 10.776 4.03995 9.76797 3.52795C8.77597 3.01595 7.79997 2.58395 6.83997 2.23195ZM2.44797 8.49595L5.25597 9.07195C5.14397 10.176 4.99197 11.304 4.79997 12.456C4.60797 13.608 4.34397 14.704 4.00797 15.744C3.67197 16.768 3.23197 17.672 2.68797 18.456L-3.31849e-05 16.896C0.479967 16.208 0.879967 15.416 1.19997 14.52C1.51997 13.624 1.78397 12.664 1.99197 11.64C2.19997 10.616 2.35197 9.56795 2.44797 8.49595ZM16.248 8.85595L18.888 7.55995C19.576 8.43995 20.216 9.39195 20.808 10.416C21.4 11.44 21.904 12.456 22.32 13.464C22.752 14.472 23.064 15.392 23.256 16.224L20.352 17.664C20.192 16.848 19.912 15.928 19.512 14.904C19.112 13.864 18.632 12.816 18.072 11.76C17.512 10.704 16.904 9.73595 16.248 8.85595ZM43.7136 14.2336H24.2605V11.843H43.7136V14.2336ZM30.6355 3.48755C30.6355 4.52661 30.4636 5.51099 30.1199 6.44067C29.7839 7.36255 29.2527 8.17896 28.5261 8.88989C27.7996 9.59302 26.8894 10.1204 25.7957 10.4719L24.4246 8.35083C25.323 8.04614 26.0652 7.63989 26.6511 7.13208C27.2449 6.62427 27.6785 6.05396 27.9519 5.42114C28.2253 4.78833 28.3621 4.1438 28.3621 3.48755V1.85864H30.6355V3.48755ZM31.3386 3.48755C31.3386 4.12817 31.4714 4.7688 31.7371 5.40942C32.0027 6.05005 32.4207 6.63989 32.991 7.17896C33.5613 7.71802 34.2644 8.15161 35.1003 8.47974L33.9753 10.7883C32.8582 10.4133 31.9363 9.84692 31.2097 9.08911C30.4832 8.32349 29.9519 7.46021 29.616 6.49927C29.2878 5.53052 29.1238 4.52661 29.1238 3.48755V1.85864H31.3386V3.48755ZM38.8503 3.48755C38.8503 4.54224 38.6824 5.55396 38.3464 6.52271C38.0183 7.48364 37.4871 8.34302 36.7527 9.10083C36.0261 9.85083 35.1003 10.4133 33.9753 10.7883L32.8386 8.47974C33.6824 8.15942 34.3816 7.72974 34.9363 7.19067C35.491 6.65161 35.9011 6.06177 36.1667 5.42114C36.4324 4.78052 36.5652 4.13599 36.5652 3.48755V1.85864H38.8503V3.48755ZM39.5886 3.48755C39.5886 4.17505 39.7253 4.83911 39.9988 5.47974C40.28 6.11255 40.7136 6.67896 41.2996 7.17896C41.8855 7.67896 42.6277 8.06958 43.5261 8.35083L42.155 10.5071C41.0535 10.1477 40.1394 9.62036 39.4128 8.92505C38.6941 8.22192 38.1667 7.40942 37.8308 6.48755C37.5027 5.55786 37.3386 4.55786 37.3386 3.48755V1.85864H39.5886V3.48755ZM41.6863 22.0969H26.5105V19.6829H41.6863V22.0969ZM29.5105 20.2454H26.5105V15.6633H29.5105V20.2454Z" fill="black"/>
</svg>
