<svg width="56" height="47" viewBox="0 0 56 47" fill="none" xmlns="http://www.w3.org/2000/svg">
<circle cx="27.5" cy="23.5" r="23" stroke="#9E585C"/>
<path d="M29 25C29 25 30 26.5 30 27.5C30 28.5 29 29 29 29" stroke="#9E585C" stroke-linecap="round"/>
<path d="M39.5811 18.5C39.5811 18.5 38.465 18.433 37.166 17.683C35.867 16.933 35.2509 16 35.2509 16" stroke="#9E585C" stroke-linecap="round"/>
<path d="M21.3301 16C21.3301 16 20.7141 16.933 19.415 17.683C18.116 18.433 17 18.5 17 18.5" stroke="#9E585C" stroke-linecap="round"/>
<circle cx="20" cy="22.9999" r="2.5" fill="#9E585C" stroke="#9E585C"/>
<circle cx="36" cy="22.9999" r="2.5" fill="#9E585C" stroke="#9E585C"/>
<circle cx="36" cy="22.9999" r="1" fill="#9E585C"/>
<circle cx="20" cy="22.9999" r="1" fill="#9E585C"/>
<path d="M20 22.9999C20.0695 22.9999 20.4069 22.9381 20.9497 22.824C21.5368 22.7006 21.8972 22.6881 21.972 22.6829C22.109 22.6735 22.4048 22.6157 22.6957 22.5894C22.8157 22.5785 22.9456 22.5633 23.1543 22.5479C23.7874 22.5011 24.0042 22.4492 24.3034 22.4335C24.4536 22.4256 24.7122 22.4074 25.0265 22.4023C25.153 22.4002 25.2123 22.3869 25.5939 22.3816C25.9754 22.3763 26.6775 22.3763 27.0638 22.3711C27.64 22.3634 27.8796 22.3245 28.0144 22.3087C28.2293 22.2836 28.5669 22.2416 28.8382 22.2152C29.0487 22.1948 29.2279 22.1686 29.4671 22.1528C29.6071 22.1436 29.9548 22.1268 30.4138 22.1217C30.8166 22.1171 30.9957 22.075 31.3891 22.0593C31.8338 22.0415 32.2244 22.023 32.4869 22.0074C32.7194 21.9936 33.1548 22.0021 33.3987 22.0072C33.8619 22.017 34.2807 22.0538 34.5061 22.0696C34.7516 22.0867 35.0298 22.1162 35.3149 22.1319C35.5098 22.158 35.7297 22.1786 35.8547 22.1943C35.8897 22.1995 35.9293 22.2097 36 22.2515" stroke="#9E585C" stroke-opacity="0.15" stroke-width="5" stroke-linecap="round"/>
<path d="M28.4062 31.5C30.9071 31.5 33.4213 32.5192 35.0566 33.8574C35.8748 34.527 36.4394 35.2483 36.6914 35.9229C36.9361 36.5779 36.8869 37.1775 36.502 37.7061C36.0443 38.3343 35.7021 38.5032 35.418 38.5342C35.0894 38.57 34.698 38.4448 34.0781 38.167C32.8769 37.6286 31.1542 36.6865 28.4062 36.6865C25.6649 36.6865 23.8164 37.6268 22.5 38.1631C21.822 38.4393 21.3582 38.5761 20.9688 38.5371C20.6274 38.5029 20.2579 38.3209 19.8115 37.7061C19.4359 37.1885 19.4058 36.6008 19.6904 35.9434C19.9843 35.2648 20.6087 34.5377 21.4922 33.8643C23.2574 32.5187 25.9026 31.5 28.4062 31.5Z" stroke="#9E585C"/>
<path d="M5.99951 6.49988C5.99951 6.49988 6.34438 7.83526 5.774 8.46644C5.20362 9.09762 3.82516 8.70505 3.41754 9.47785C3.00991 10.2506 4.58611 12.5355 4.11342 14.3684C3.64073 16.2013 1.4368 16.8701 1.1145 18.0729C0.792197 19.2758 3.50026 20.5 1.88388 22.6892" stroke="#9E585C" stroke-linecap="round"/>
<path d="M53.9649 24.8576C53.9649 24.8576 52.8183 23.8175 53.0005 22.9999C53.1827 22.1823 54.9529 21.8059 54.9238 20.9488C54.8947 20.0917 52.2974 18.7932 51.8987 17.1466C51.5001 15.5 53.0001 14 52.6655 12.5206C52.3309 11.0411 49.5001 10.5 50.0001 9.00002" stroke="#9E585C" stroke-linecap="round"/>
<circle cx="36" cy="23" r="1" fill="white"/>
<circle cx="20" cy="23" r="1" fill="white"/>
</svg>
