<svg width="47" height="47" viewBox="0 0 47 47" fill="none" xmlns="http://www.w3.org/2000/svg">
<path d="M16 24C16.0695 24 16.4069 23.9383 16.9497 23.8241C17.5368 23.7007 17.8972 23.6882 17.972 23.683C18.109 23.6736 18.4048 23.6158 18.6957 23.5895C18.8157 23.5786 18.9456 23.5635 19.1543 23.548C19.7874 23.5012 20.0042 23.4493 20.3034 23.4336C20.4536 23.4257 20.7122 23.4076 21.0265 23.4024C21.153 23.4003 21.2123 23.387 21.5939 23.3817C21.9754 23.3764 22.6775 23.3764 23.0638 23.3712C23.64 23.3636 23.8796 23.3246 24.0144 23.3089C24.2293 23.2838 24.5669 23.2417 24.8382 23.2153C25.0487 23.1949 25.2279 23.1687 25.4671 23.153C25.6071 23.1437 25.9548 23.1269 26.4138 23.1218C26.8166 23.1173 26.9957 23.0752 27.3891 23.0594C27.8338 23.0416 28.2244 23.0231 28.4869 23.0075C28.7194 22.9937 29.1548 23.0022 29.3987 23.0073C29.8619 23.0171 30.2807 23.054 30.5061 23.0697C30.7516 23.0869 31.0298 23.1163 31.3149 23.1321C31.5098 23.1581 31.7297 23.1787 31.8547 23.1944C31.8897 23.1996 31.9293 23.2099 32 23.2517" stroke="#6B8881" stroke-opacity="0.15" stroke-width="5" stroke-linecap="round"/>
<circle cx="23.5" cy="23.5" r="23" stroke="#6B8881"/>
<path d="M25 25C25 25 26 26.5 26 27.5C26 28.5 25 29 25 29" stroke="#6B8881" stroke-linecap="round"/>
<path d="M37.5785 15.7221C37.5785 15.7221 36.1209 16.0203 34.1929 15.5037C32.2648 14.9871 31.1517 14 31.1517 14" stroke="#6B8881" stroke-linecap="round"/>
<path d="M18.4264 14.7221C18.4264 14.7221 17.3133 15.7092 15.3853 16.2258C13.4572 16.7424 11.9997 16.4441 11.9997 16.4441" stroke="#6B8881" stroke-linecap="round"/>
<circle cx="16" cy="23" r="2.5" fill="#6B8881" stroke="#6B8881"/>
<circle cx="32" cy="23" r="2.5" fill="#6B8881" stroke="#6B8881"/>
<path d="M32 34.5C32 34.5 30 32 24 32C18 32 16 34.5 16 34.5" stroke="#6B8881" stroke-linecap="round"/>
</svg>
