<svg width="47" height="47" viewBox="0 0 47 47" fill="none" xmlns="http://www.w3.org/2000/svg">
<circle cx="23.5" cy="23.5" r="23" stroke="#B04941"/>
<circle cx="16" cy="21.6235" r="3" fill="#B04941"/>
<circle cx="32" cy="21.6235" r="3" fill="#B04941"/>
<path d="M25 24C25 24 26 25.5 26 26.5C26 27.5 25 28 25 28" stroke="#B04941" stroke-linecap="round"/>
<path d="M16 22C16.0695 22 16.4069 21.9383 16.9497 21.8241C17.5368 21.7007 17.8972 21.6882 17.972 21.683C18.109 21.6736 18.4048 21.6158 18.6957 21.5895C18.8157 21.5786 18.9456 21.5635 19.1543 21.548C19.7874 21.5012 20.0042 21.4493 20.3034 21.4336C20.4536 21.4257 20.7122 21.4076 21.0265 21.4024C21.153 21.4003 21.2123 21.387 21.5939 21.3817C21.9754 21.3764 22.6775 21.3764 23.0638 21.3712C23.64 21.3636 23.8796 21.3246 24.0144 21.3089C24.2293 21.2838 24.5669 21.2417 24.8382 21.2153C25.0487 21.1949 25.2279 21.1687 25.4671 21.153C25.6071 21.1437 25.9548 21.1269 26.4138 21.1218C26.8166 21.1173 26.9957 21.0752 27.3891 21.0594C27.8338 21.0416 28.2244 21.0231 28.4869 21.0075C28.7194 20.9937 29.1548 21.0022 29.3987 21.0073C29.8619 21.0171 30.2807 21.054 30.5061 21.0697C30.7516 21.0869 31.0298 21.1163 31.3149 21.1321C31.5098 21.1581 31.7297 21.1787 31.8547 21.1944C31.8897 21.1996 31.9293 21.2099 32 21.2517" stroke="#B04941" stroke-opacity="0.15" stroke-width="5" stroke-linecap="round"/>
<path d="M18.6064 32.7129C19.0808 32.8552 19.7447 33.0456 20.5039 33.2354C22.0109 33.6121 23.9355 34 25.5 34C27.0756 34 28.6332 33.6079 29.7832 33.2246C30.2651 33.064 30.6792 32.9006 31 32.7676V36.9482C30.9189 36.9405 30.83 36.9328 30.7344 36.9238C30.2333 36.8769 29.544 36.8146 28.792 36.752C27.2955 36.6272 25.5243 36.5 24.5 36.5C23.4773 36.5 21.5825 36.6273 19.9619 36.752C19.1476 36.8146 18.3955 36.8769 17.8477 36.9238C17.7632 36.9311 17.6836 36.9379 17.6094 36.9443L18.3906 32.6465C18.4574 32.6669 18.5293 32.6897 18.6064 32.7129Z" stroke="#B04941"/>
<line x1="12.683" y1="13.817" x2="18.7452" y2="17.317" stroke="#B04941" stroke-linecap="round"/>
<line x1="29.183" y1="17.317" x2="35.2452" y2="13.817" stroke="#B04941" stroke-linecap="round"/>
</svg>
