<svg width="52" height="47" viewBox="0 0 52 47" fill="none" xmlns="http://www.w3.org/2000/svg">
<circle cx="23.5" cy="23.5" r="23" stroke="#B8B7A8"/>
<path d="M25 24C25 24 26 25.5 26 26.5C26 27.5 25 28 25 28" stroke="#B8B7A8" stroke-linecap="round"/>
<path d="M37.5785 16.7221C37.5785 16.7221 36.1209 17.0203 34.1929 16.5037C32.2648 15.9871 31.1517 15 31.1517 15" stroke="#B8B7A8" stroke-linecap="round"/>
<path d="M18.4264 15.7221C18.4264 15.7221 17.3133 16.7092 15.3853 17.2258C13.4572 17.7424 11.9997 17.4441 11.9997 17.4441" stroke="#B8B7A8" stroke-linecap="round"/>
<path d="M18.0005 20C18.5528 20 19.0119 20.4532 18.8915 20.9922C18.5053 22.7214 17.1333 24 15.5 24C13.8667 24 12.4947 22.7214 12.1085 20.9922C11.9881 20.4532 12.4472 20 12.9995 20C13.6348 20 14.5204 20 15.5 20C16.4796 20 17.3652 20 18.0005 20Z" fill="#B8B7A8" fill-opacity="0.95"/>
<path d="M36.0005 20C36.5528 20 37.0119 20.4532 36.8915 20.9922C36.5053 22.7214 35.1333 24 33.5 24C31.8667 24 30.4947 22.7214 30.1085 20.9922C29.9881 20.4532 30.4472 20 30.9995 20C31.6348 20 32.5204 20 33.5 20C34.4796 20 35.3652 20 36.0005 20Z" fill="#B8B7A8" fill-opacity="0.85"/>
<path d="M32 35.5C32 35.5 30 33 24 33C18 33 16 35.5 16 35.5" stroke="#B8B7A8" stroke-linecap="round"/>
<rect x="41.5" y="1.5" width="10" height="6" rx="3" stroke="#B8B7A8"/>
<circle cx="44.5" cy="4.5" r="0.5" fill="#B8B7A8"/>
<circle cx="46.5" cy="4.5" r="0.5" fill="#B8B7A8"/>
<circle cx="48.5" cy="4.5" r="0.5" fill="#B8B7A8"/>
<path d="M43.5 9L43.9999 7.50017" stroke="#B8B7A8" stroke-linecap="round"/>
</svg>
