<svg width="47" height="47" viewBox="0 0 47 47" fill="none" xmlns="http://www.w3.org/2000/svg">
<circle cx="23.5" cy="23.5" r="23" stroke="#5C8D85"/>
<path d="M25 24C25 24 26 25.5 26 26.5C26 27.5 25 28 25 28" stroke="#5C8D85" stroke-linecap="round"/>
<path d="M16 33C16 33 18 35.5 24 35.5C30 35.5 32 33 32 33" stroke="#5C8D85" stroke-linecap="round"/>
<path d="M29.9902 15.7254C29.9902 15.7254 31.0618 15.2351 32.9937 15.7527C34.9255 16.2703 35.7858 17.2783 35.7858 17.2783" stroke="#5C8D85" stroke-linecap="round"/>
<path d="M13.1944 17.5418C13.1944 17.5418 13.8773 16.5813 15.8091 16.0637C17.741 15.5461 18.9899 15.9889 18.9899 15.9889" stroke="#5C8D85" stroke-linecap="round"/>
<path d="M13 22H18.5" stroke="#5C8D85" stroke-linecap="round"/>
<path d="M29.5 22H35" stroke="#5C8D85" stroke-linecap="round"/>
</svg>
