<svg width="54" height="48" viewBox="0 0 54 48" fill="none" xmlns="http://www.w3.org/2000/svg">
<circle cx="23.5" cy="24.5" r="23" stroke="#97488E"/>
<path d="M25 26C25 26 26 27.5 26 28.5C26 29.5 25 30 25 30" stroke="#97488E" stroke-linecap="round"/>
<path d="M35 17C35 17 34 17.5 32.5 17.5C31 17.5 30 17 30 17" stroke="#97488E" stroke-linecap="round"/>
<path d="M19 17C19 17 18 17.5 16.5 17.5C15 17.5 14 17 14 17" stroke="#97488E" stroke-linecap="round"/>
<circle cx="16.21" cy="22.7832" r="2.5" fill="#97488E" stroke="#97488E"/>
<circle cx="32.21" cy="22.7832" r="2.5" fill="#97488E" stroke="#97488E"/>
<circle cx="32.21" cy="22.7832" r="1" fill="white"/>
<circle cx="16.21" cy="22.7832" r="1" fill="white"/>
<path d="M19.21 23.9326C20.3365 23.9326 22.278 23.8665 22.8793 23.816C23.745 23.7432 25.1479 23.7984 25.8658 23.9156C26.3475 23.9326 26.719 23.9657 27.2161 24.0157C27.6141 24.0327 28.3081 24.0327 28.9229 24.0327" stroke="#97488E" stroke-opacity="0.15" stroke-width="5" stroke-linecap="round"/>
<path d="M28.3633 33.501C29.1736 33.508 29.7047 33.5501 30.0479 33.6562C30.2107 33.7066 30.3025 33.7637 30.3564 33.8145C30.4051 33.8604 30.445 33.9212 30.4707 34.0234C30.5308 34.2628 30.5041 34.6749 30.3232 35.3984C30.0568 36.4642 29.9574 36.8301 29.4971 37.0801C29.2363 37.2216 28.8264 37.3375 28.1396 37.4131C27.4583 37.4881 26.5468 37.5195 25.3086 37.5195C24.0523 37.5195 22.9585 37.5833 22.0488 37.6221C21.1234 37.6615 20.4136 37.6728 19.8672 37.5879C19.3329 37.5048 19.0319 37.3413 18.8438 37.0889C18.6423 36.8185 18.5 36.3543 18.5 35.5195C18.5001 35.0702 18.6178 34.7675 18.8184 34.54C19.029 34.3012 19.3767 34.0935 19.9307 33.9316C21.0559 33.6028 22.8096 33.5195 25.3086 33.5195C26.5777 33.5195 27.5517 33.4939 28.3633 33.501Z" stroke="#97488E"/>
<rect x="41.5" y="0.5" width="11" height="8" rx="4" stroke="#97488E"/>
<path d="M45.5 10L45.9999 8.50017" stroke="#97488E" stroke-linecap="round"/>
<path d="M43.5606 2.45798C43.4391 3.23505 43.473 4.26384 43.603 4.41134C43.7965 4.63075 44.7864 4.56039 45.5913 4.28339C45.8125 4.20727 45.836 3.90111 45.8795 3.6499C45.9254 3.38532 45.8193 3.15375 45.7414 3.02345C45.6876 2.9334 45.5071 2.96196 45.3253 3.00469C45.0522 3.06884 44.9339 3.53316 44.8122 4.00899C44.6473 4.65352 44.9146 5.21863 45.1225 5.49616C45.4633 5.95096 46.0768 6.03635 46.6073 6.02827C46.9365 6.02326 47.3109 5.70854 47.701 5.3015C48.0954 4.88996 48.2678 4.33681 48.3892 3.82554C48.449 3.57384 48.4763 3.33147 48.494 3.10424C48.5117 2.877 48.5117 2.67062 48.3999 2.93407C48.2881 3.19753 48.0645 3.93707 47.9322 4.46424C47.7285 5.27539 47.7471 5.70541 47.8162 5.90502C47.8746 6.07384 48.1286 6.07127 48.3277 6.09733C48.5764 6.12988 49.0985 5.84821 49.7492 5.36274C50.2275 5.00592 50.439 4.52756 50.6211 4.05981C50.8094 3.57633 50.7705 3.06828 50.6667 2.63492C50.5656 2.2122 50.2847 1.95505 50.0682 1.81616C49.8628 1.68441 49.504 1.76274 49.0795 1.90085C48.5844 2.06194 48.1495 2.61173 47.6468 3.16599C47.1232 3.74334 46.8794 4.41811 46.7924 4.9385C46.7291 5.3164 46.9471 5.61837 47.1637 5.86984C47.3644 6.10288 47.6419 6.2099 47.9275 6.30528C48.2876 6.42556 48.7353 6.40169 49.1772 6.33264C49.9808 6.20709 50.317 5.76013 50.4403 5.58502C50.5942 5.36637 49.7828 6.41368 49.3312 7.22984C49.1667 7.52716 49.1548 7.59883 49.1804 7.62567C49.2457 7.69437 49.5004 7.5316 49.7693 7.36691C49.9697 7.24418 50.0575 7.04534 50.1096 6.8288C50.1645 6.60089 50.0585 6.26463 49.8683 5.84013C49.6515 5.35623 49.2257 5.04769 48.9135 4.85668C48.6928 4.72164 48.3918 4.76834 48.0453 4.8374C47.6795 4.91028 47.3495 5.21863 47.0201 5.53915C46.6987 5.85188 46.4974 6.20886 46.3671 6.52078C46.2456 6.81149 46.34 7.12977 46.409 7.38124C46.4422 7.5019 46.5469 7.58111 46.617 7.50502C46.847 7.25537 46.809 6.78528 46.8007 6.45616C46.7808 5.67213 45.9955 5.17016 45.5944 4.97733C45.4374 4.90184 45.1778 5.0628 44.8228 5.36534C44.3202 5.79379 44.0995 6.2099 44.0645 6.34827C43.957 6.77438 44.4111 7.00886 44.5411 7.12169C44.5981 7.17113 44.654 7.18293 44.7236 7.1316C44.8791 6.95987 45.0537 6.68104 45.2184 6.33472C45.2971 6.14319 45.3659 5.91961 45.4368 5.63713" stroke="#97488E" stroke-linecap="round"/>
</svg>
