<svg width="47" height="47" viewBox="0 0 47 47" fill="none" xmlns="http://www.w3.org/2000/svg">
<circle cx="23.5" cy="23.5" r="23" stroke="#758290"/>
<path d="M19 21.2661C19 22.7759 17.6569 24 16 24C14.3431 24 13 22.7759 13 21.2661C13 20.6676 14.3431 21.2661 16 21.2661C17.6569 21.2661 19 20.8104 19 21.2661Z" fill="#758290"/>
<path d="M36 21.2661C36 22.7759 34.6569 24 33 24C31.3431 24 30 22.7759 30 21.2661C30 20.6676 31.3431 21.2661 33 21.2661C34.6569 21.2661 36 20.8104 36 21.2661Z" fill="#758290"/>
<path d="M25 24C25 24 26 25.5 26 26.5C26 27.5 25 28 25 28" stroke="#758290" stroke-linecap="round"/>
<path d="M34.9468 18.2941C34.9468 18.2941 33.8515 18.5183 32.4026 18.1301C30.9537 17.7418 30.1172 17 30.1172 17" stroke="#758290" stroke-linecap="round"/>
<path d="M18.8706 17.0007C18.8706 17.0007 18.0341 17.7425 16.5852 18.1307C15.1363 18.5189 14.041 18.2948 14.041 18.2948" stroke="#758290" stroke-linecap="round"/>
<path d="M23.0001 32.3564C29 30.7909 27.4998 34.8564 24.0005 35.4215C24.0005 35.4215 27.5005 35.3564 27.0005 37.3564C26.5005 39.3564 23.0001 37.8564 23.0001 37.8564" stroke="#758290" stroke-linecap="round"/>
</svg>
