<svg width="47" height="47" viewBox="0 0 47 47" fill="none" xmlns="http://www.w3.org/2000/svg">
<circle cx="23.5" cy="23.5" r="23" stroke="#DA7668"/>
<path d="M25 25C25 25 26 26.5 26 27.5C26 28.5 25 29 25 29" stroke="#DA7668" stroke-linecap="round"/>
<circle cx="17" cy="22" r="2.5" fill="#DA7668" stroke="#DA7668"/>
<circle cx="33" cy="22" r="2.5" fill="#DA7668" stroke="#DA7668"/>
<ellipse cx="37.5" cy="27.5" rx="2.5" ry="1.5" fill="#DA7668" fill-opacity="0.5"/>
<ellipse cx="10.5" cy="27.5" rx="2.5" ry="1.5" fill="#DA7668" fill-opacity="0.5"/>
<path d="M24.5713 32.5C25.461 32.5 26.313 32.506 27.085 32.5742C27.8601 32.6427 28.5179 32.7715 29.0283 32.999C29.5274 33.2215 29.8672 33.5286 30.0557 33.959C30.2493 34.4012 30.3137 35.042 30.1191 35.9824C30.007 36.5241 29.8171 36.9308 29.5645 37.2441C29.3122 37.5568 28.9773 37.8012 28.5381 37.9883C27.6373 38.3719 26.344 38.5 24.5713 38.5C22.8001 38.5 21.5053 38.3505 20.6641 37.9629C20.2561 37.7748 19.9746 37.5393 19.792 37.2539C19.6094 36.9684 19.5 36.5928 19.5 36.083C19.5001 35.0748 19.9308 34.1997 20.7588 33.5635C21.5974 32.9192 22.8732 32.5 24.5713 32.5Z" stroke="#DA7668"/>
<path d="M6.18848 18.1572C6.34014 18.535 6.54789 18.9995 6.74121 19.4551C6.93924 19.9217 7.13109 20.3994 7.27344 20.8486C7.41778 21.3043 7.49999 21.6968 7.5 22C7.5 22.7286 7.18062 23.225 6.81738 23.5488C6.63283 23.7133 6.43809 23.8308 6.27344 23.9062C6.10207 23.9847 6.00515 23.9988 6 24C5.99482 23.9988 5.89789 23.9847 5.72656 23.9062C5.56193 23.8308 5.36716 23.7133 5.18262 23.5488C4.81939 23.225 4.50005 22.7285 4.5 22C4.5 21.644 4.62459 21.1375 4.84375 20.5557C5.05855 19.9855 5.34718 19.3858 5.63867 18.8584C5.81305 18.5429 5.9859 18.2603 6.13867 18.0293C6.15492 18.0712 6.17127 18.1144 6.18848 18.1572Z" fill="white" stroke="#DA7668"/>
<path d="M14 15.8118C14 15.8118 17.5471 15.3795 18.513 15.1207C19.4789 14.8618 20.7615 14 20.7615 14" stroke="#DA7668" stroke-linecap="round"/>
<path d="M37.0205 15.8118C37.0205 15.8118 33.3442 15.862 32.3782 15.6031C31.4123 15.3443 30.259 14 30.259 14" stroke="#DA7668" stroke-linecap="round"/>
</svg>
