<svg width="50" height="50" viewBox="0 0 50 50" fill="none" xmlns="http://www.w3.org/2000/svg">
<circle cx="25" cy="25" r="24.5" stroke="#DE8A7E"/>
<circle cx="18" cy="23" r="2.5" fill="#DE8A7E" stroke="#DE8A7E"/>
<circle cx="34" cy="23" r="2.5" fill="#DE8A7E" stroke="#DE8A7E"/>
<path d="M26 25C26 25 27 26.5 27 27.5C27 28.5 26 29 26 29" stroke="#DE8A7E" stroke-linecap="round"/>
<path d="M37.9468 18.2941C37.9468 18.2941 36.8515 18.5183 35.4026 18.1301C33.9537 17.7418 33.1172 17 33.1172 17" stroke="#DE8A7E" stroke-linecap="round"/>
<path d="M20.8296 17.0007C20.8296 17.0007 19.9931 17.7425 18.5442 18.1307C17.0953 18.5189 15.9999 18.2948 15.9999 18.2948" stroke="#DE8A7E" stroke-linecap="round"/>
<ellipse cx="39.5" cy="26.1235" rx="2.5" ry="1.5" fill="#DE8A7E" fill-opacity="0.5"/>
<ellipse cx="12.5" cy="26.1235" rx="2.5" ry="1.5" fill="#DE8A7E" fill-opacity="0.5"/>
<path d="M15 34C15 34 17 38.5 25 38.5C33 38.5 35 34 35 34" stroke="#DE8A7E" stroke-linecap="round"/>
<path d="M15.4999 33.0001C14.8237 34.4079 14.1236 35.0537 12.5 36.0002" stroke="#DE8A7E" stroke-linecap="round"/>
</svg>
