<svg width="47" height="47" viewBox="0 0 47 47" fill="none" xmlns="http://www.w3.org/2000/svg">
<circle cx="23.5" cy="23.5" r="23" stroke="#B4BEC5"/>
<circle cx="17" cy="23" r="2.5" fill="#B4BEC5" stroke="#B4BEC5"/>
<circle cx="33" cy="23" r="2.5" fill="#B4BEC5" stroke="#B4BEC5"/>
<circle cx="33" cy="23" r="1" fill="white"/>
<circle cx="17" cy="23" r="1" fill="white"/>
<path d="M25 26C25 26 26 27.5 26 28.5C26 29.5 25 30 25 30" stroke="#B4BEC5" stroke-linecap="round"/>
<path d="M14 17H20" stroke="#B4BEC5" stroke-linecap="round"/>
<path d="M30 17H36" stroke="#B4BEC5" stroke-linecap="round"/>
<path d="M22 34H28" stroke="#B4BEC5" stroke-linecap="round"/>
<path d="M45 25C45 36.598 35.598 46 24 46C12.402 46 3 36.598 3 25C3 13.402 12.402 4 24 4C35.598 4 45 13.402 45 25Z" fill="#B4BEC5" fill-opacity="0.15"/>
</svg>
