<svg width="47" height="47" viewBox="0 0 47 47" fill="none" xmlns="http://www.w3.org/2000/svg">
<circle cx="23.5" cy="23.5" r="23" stroke="#E39F73"/>
<path d="M25 24C25 24 26 25.5 26 26.5C26 27.5 25 28 25 28" stroke="#E39F73" stroke-linecap="round"/>
<ellipse cx="37.5" cy="26.5" rx="2.5" ry="1.5" fill="#E39F73" fill-opacity="0.5"/>
<ellipse cx="10.5" cy="26.5" rx="2.5" ry="1.5" fill="#E39F73" fill-opacity="0.5"/>
<circle cx="35" cy="19" r="1" fill="white"/>
<path d="M34.4678 29.7363C34.067 34.9083 29.498 39 24.5 39C19.5019 39 14.932 34.9083 14.5312 29.7363C14.5724 29.7511 14.6148 29.7685 14.6592 29.7842C15.2015 29.9756 15.9835 30.2295 16.9482 30.4834C18.8763 30.9907 21.5455 31.5 24.5 31.5C27.4545 31.5 30.1237 30.9907 32.0518 30.4834C33.0165 30.2295 33.7985 29.9756 34.3408 29.7842C34.3849 29.7686 34.4269 29.751 34.4678 29.7363Z" stroke="#E39F73"/>
<path d="M29.1846 16.7254C29.1846 16.7254 29.8675 15.7649 31.7993 15.2473C33.7312 14.7297 34.9802 15.1725 34.9802 15.1725" stroke="#E39F73" stroke-linecap="round"/>
<path d="M13 14.7254C13 14.7254 14.0716 14.2351 16.0034 14.7527C17.9353 15.2703 18.7955 16.2783 18.7955 16.2783" stroke="#E39F73" stroke-linecap="round"/>
<path d="M34.9637 19.0008C34.9637 19.0008 33.5358 19.3305 32 20.5005C30.4642 21.6705 29.8466 22.66 29.8466 22.66L34.9642 23.1825" stroke="#E39F73" stroke-linecap="round"/>
<path d="M13.0452 19.0008C13.0452 19.0008 14.4731 19.3305 16.0089 20.5005C17.5446 21.6705 18.1622 22.6599 18.1622 22.6599L13.0448 23.1824" stroke="#E39F73" stroke-linecap="round"/>
</svg>
