<svg width="47" height="47" viewBox="0 0 47 47" fill="none" xmlns="http://www.w3.org/2000/svg">
<circle cx="23.5" cy="23.5" r="23" stroke="#AABEE1"/>
<path d="M24 24.3266C24 24.3266 25.5 23.3264 25.5 24.8266C25.5 26.3267 24.5 26.8267 24.5 26.8267" stroke="#AABEE1" stroke-linecap="round"/>
<ellipse cx="37.5" cy="26.5002" rx="2.5" ry="1.5" fill="#AABEE1" fill-opacity="0.5"/>
<ellipse cx="10.5" cy="26.5002" rx="2.5" ry="1.5" fill="#AABEE1" fill-opacity="0.5"/>
<path d="M19 21.4221C19 21.4221 18.5 23.4221 16 23.4221C13.5 23.4221 13 21.4221 13 21.4221" stroke="#AABEE1" stroke-linecap="round"/>
<path d="M35 21.4221C35 21.4221 34.5 23.4221 32 23.4221C29.5 23.4221 29 21.4221 29 21.4221" stroke="#AABEE1" stroke-linecap="round"/>
<path d="M34.9795 17.2939C34.9795 17.2939 33.8842 17.518 32.4353 17.1298C30.9864 16.7416 30.1499 15.9998 30.1499 15.9998" stroke="#AABEE1" stroke-linecap="round"/>
<path d="M17.8623 16.0004C17.8623 16.0004 17.0258 16.7422 15.5769 17.1304C14.128 17.5187 13.0327 17.2945 13.0327 17.2945" stroke="#AABEE1" stroke-linecap="round"/>
<path d="M33.0693 31.5C33.011 31.558 32.9475 31.6192 32.8779 31.6826C32.4035 32.1146 31.7022 32.63 30.8252 33.125C29.0694 34.1161 26.6539 35 24 35C21.3461 35 18.9306 34.1161 17.1748 33.125C16.2978 32.63 15.5965 32.1146 15.1221 31.6826C15.0525 31.6192 14.989 31.558 14.9307 31.5H33.0693Z" stroke="#AABEE1"/>
</svg>
