<svg width="47" height="47" viewBox="0 0 47 47" fill="none" xmlns="http://www.w3.org/2000/svg">
<path d="M12.9766 25.0372C13.0775 25.0372 13.5675 24.951 14.3558 24.7918C15.2085 24.6195 15.732 24.602 15.8406 24.5948C16.0395 24.5817 16.4691 24.5011 16.8917 24.4643C17.066 24.4491 17.2546 24.428 17.5577 24.4064C18.4772 24.3411 18.792 24.2687 19.2265 24.2467C19.4447 24.2357 19.8203 24.2104 20.2768 24.2032C20.4605 24.2003 20.5466 24.1817 21.1007 24.1743C21.6549 24.1669 22.6745 24.1669 23.2356 24.1597C24.0725 24.149 24.4203 24.0946 24.6162 24.0727C24.9283 24.0376 25.4186 23.9789 25.8126 23.9421C26.1183 23.9136 26.3786 23.877 26.726 23.8551C26.9293 23.8422 27.4343 23.8187 28.1009 23.8116C28.686 23.8053 28.946 23.7465 29.5174 23.7245C30.1632 23.6997 30.7306 23.6738 31.1118 23.6521C31.4494 23.6328 32.0817 23.6447 32.436 23.6519C33.1087 23.6655 33.7171 23.7169 34.0443 23.7389C34.4009 23.7628 34.805 23.8039 35.219 23.8259C35.5021 23.8623 35.8215 23.891 36.003 23.9129C36.0539 23.9201 36.1113 23.9345 36.214 23.9928" stroke="#DADE4E" stroke-opacity="0.15" stroke-width="5" stroke-linecap="round"/>
<circle cx="23.5" cy="23.5" r="23" stroke="#DADE4E"/>
<path d="M25 25C25 25 26 26.5 26 27.5C26 28.5 25 29 25 29" stroke="#DADE4E" stroke-linecap="round"/>
<ellipse cx="37.5" cy="26.5" rx="2.5" ry="1.5" fill="#DADE4E" fill-opacity="0.5"/>
<ellipse cx="11.5" cy="26.5" rx="2.5" ry="1.5" fill="#DADE4E" fill-opacity="0.5"/>
<circle cx="32" cy="23" r="3" fill="#DADE4E"/>
<path d="M33.5 23C33.5 23.8284 32.8284 24.5 32 24.5C31.1716 24.5 30.5 23.8284 30.5 23C30.5 22.1716 31.1716 21.5 32 21.5C32.8284 21.5 33.5 22.1716 33.5 23Z" fill="white"/>
<circle cx="17" cy="23" r="3" fill="#DADE4E"/>
<path d="M18.5 23C18.5 23.8284 17.8284 24.5 17 24.5C16.1716 24.5 15.5 23.8284 15.5 23C15.5 22.1716 16.1716 21.5 17 21.5C17.8284 21.5 18.5 22.1716 18.5 23Z" fill="white"/>
<path d="M30 18.5C30 18.5 31 18 32.5 18C34 18 35 18.5 35 18.5" stroke="#DADE4E" stroke-linecap="round"/>
<path d="M14 18.5C14 18.5 15 18 16.5 18C18 18 19 18.5 19 18.5" stroke="#DADE4E" stroke-linecap="round"/>
<path d="M19 35C19 35 20.5 34 22 34C23.5 34 25 35 25 35C25 35 26.5 34 28 34C29.5 34 31 35 31 35" stroke="#DADE4E" stroke-linecap="round"/>
<g clip-path="url(#clip0_37_496)">
<path d="M6.35352 0.538086L6.5 0.740234L6.64648 0.538086C6.89062 0.200195 7.2832 0 7.7002 0C8.41797 0 9 0.582031 9 1.2998V1.3252C9 2.4209 7.63379 3.69336 6.9209 4.2373C6.7998 4.3291 6.65137 4.375 6.5 4.375C6.34863 4.375 6.19922 4.33008 6.0791 4.2373C5.36621 3.69336 4 2.4209 4 1.3252V1.2998C4 0.582031 4.58203 0 5.2998 0C5.7168 0 6.10938 0.200195 6.35352 0.538086Z" fill="#DADE4E"/>
</g>
<g clip-path="url(#clip1_37_496)">
<path d="M2.41211 4.19785L2.5 4.31914L2.58789 4.19785C2.73438 3.99512 2.96992 3.875 3.22012 3.875C3.65078 3.875 4 4.22422 4 4.65488V4.67012C4 5.32754 3.18027 6.09102 2.75254 6.41738C2.67988 6.47246 2.59082 6.5 2.5 6.5C2.40918 6.5 2.31953 6.47305 2.24746 6.41738C1.81973 6.09102 1 5.32754 1 4.67012V4.65488C1 4.22422 1.34922 3.875 1.77988 3.875C2.03008 3.875 2.26562 3.99512 2.41211 4.19785Z" fill="#DADE4E"/>
</g>
<defs>
<clipPath id="clip0_37_496">
<rect width="5" height="5" fill="white" transform="translate(4)"/>
</clipPath>
<clipPath id="clip1_37_496">
<rect width="3" height="3" fill="white" transform="translate(1 3.6875)"/>
</clipPath>
</defs>
</svg>
