<svg width="47" height="47" viewBox="0 0 47 47" fill="none" xmlns="http://www.w3.org/2000/svg">
<circle cx="23.5" cy="23.5" r="23" stroke="#938F90"/>
<path d="M19 21.2919C19 22.9487 17.433 24.2919 15.5 24.2919C13.567 24.2919 12 22.9487 12 21.2919C12 20.6353 13.567 21.2919 15.5 21.2919C17.433 21.2919 19 20.792 19 21.2919Z" fill="#938F90"/>
<path d="M35 21.2224C35 22.8792 33.433 24.2224 31.5 24.2224C29.567 24.2224 28 22.8791 28 21.2222C28 20.7222 29.567 21.2224 31.5 21.2224C33.433 21.2224 35 20.7224 35 21.2224Z" fill="#938F90"/>
<path d="M25 24C25 24 26 25.5 26 26.5C26 27.5 25 28 25 28" stroke="#938F90" stroke-linecap="round"/>
<path d="M12 16.8118C12 16.8118 15.5471 16.3795 16.513 16.1207C17.4789 15.8618 18.7615 15 18.7615 15" stroke="#938F90" stroke-linecap="round"/>
<path d="M35.0205 16.8118C35.0205 16.8118 31.3442 16.862 30.3782 16.6032C29.4123 16.3443 28.259 15 28.259 15" stroke="#938F90" stroke-linecap="round"/>
<path d="M23.5 32.5C25.502 32.5 27.3009 32.9462 28.583 33.5771C29.2248 33.893 29.7192 34.2464 30.0459 34.5957C30.3759 34.9486 30.5 35.2583 30.5 35.5C30.5 35.7223 30.3941 35.9554 30.0928 36.2031C29.7837 36.4572 29.3036 36.6942 28.6562 36.8936C27.3656 37.291 25.5458 37.5 23.5 37.5C21.4542 37.5 19.6344 37.291 18.3438 36.8936C17.6964 36.6942 17.2163 36.4572 16.9072 36.2031C16.6059 35.9554 16.5 35.7223 16.5 35.5C16.5 35.2583 16.6241 34.9486 16.9541 34.5957C17.2808 34.2464 17.7752 33.893 18.417 33.5771C19.6991 32.9462 21.498 32.5 23.5 32.5Z" stroke="#938F90"/>
</svg>
