<svg width="47" height="47" viewBox="0 0 47 47" fill="none" xmlns="http://www.w3.org/2000/svg">
<circle cx="23.5" cy="23.5" r="23" stroke="#D66777"/>
<path d="M25 25C25 25 26 26.5 26 27.5C26 28.5 25 29 25 29" stroke="#D66777" stroke-linecap="round"/>
<path d="M33.4697 30.7354C33.0932 35.9155 28.7755 40 23.5 40C18.2245 40 13.9058 35.9155 13.5293 30.7354C13.571 30.7504 13.6141 30.7683 13.6592 30.7842C14.2015 30.9756 14.9835 31.2295 15.9482 31.4834C17.8763 31.9907 20.5455 32.5 23.5 32.5C26.4545 32.5 29.1237 31.9907 31.0518 31.4834C32.0165 31.2295 32.7985 30.9756 33.3408 30.7842C33.3856 30.7684 33.4282 30.7503 33.4697 30.7354Z" stroke="#D66777"/>
<ellipse cx="37.5" cy="25.5" rx="2.5" ry="1.5" fill="#D66777" fill-opacity="0.5"/>
<ellipse cx="10.5" cy="25.5" rx="2.5" ry="1.5" fill="#D66777" fill-opacity="0.5"/>
<circle cx="34" cy="18" r="1" fill="white"/>
<circle cx="18" cy="18" r="1" fill="white"/>
<path d="M30.0309 17.9339C30.0309 17.9339 30.9835 17.3486 32.4778 17.2179C33.9721 17.0872 35.0119 17.4981 35.0119 17.4981" stroke="#D66777" stroke-linecap="round"/>
<path d="M12.9999 17.4983C12.9999 17.4983 14.0397 17.0874 15.5339 17.2181C17.0282 17.3489 17.9809 17.9341 17.9809 17.9341" stroke="#D66777" stroke-linecap="round"/>
<path d="M29 22.217C29 22.217 29.5 20.217 32 20.217C34.5 20.217 35 22.217 35 22.217" stroke="#D66777" stroke-linecap="round"/>
<path d="M13 22.217C13 22.217 13.5 20.217 16 20.217C18.5 20.217 19 22.217 19 22.217" stroke="#D66777" stroke-linecap="round"/>
</svg>
