<svg width="47" height="47" viewBox="0 0 47 47" fill="none" xmlns="http://www.w3.org/2000/svg">
<circle cx="23.5" cy="23.5" r="23" stroke="#EDC16F"/>
<path d="M25 24C25 24 26 25.5 26 26.5C26 27.5 25 28 25 28" stroke="#EDC16F" stroke-linecap="round"/>
<ellipse cx="35.5" cy="29.5" rx="2.5" ry="1.5" fill="#EDC16F" fill-opacity="0.5"/>
<ellipse cx="13.5" cy="29.5" rx="2.5" ry="1.5" fill="#EDC16F" fill-opacity="0.5"/>
<path d="M17 32C17 32 19 34.5 25 34.5C31 34.5 33 32 33 32" stroke="#EDC16F" stroke-linecap="round"/>
<path d="M13.3882 22.5441C13.3882 22.5441 13.483 20.9658 15.8978 20.3188C18.3126 19.6717 19.1838 20.9912 19.1838 20.9912" stroke="#EDC16F" stroke-linecap="round"/>
<path d="M30.184 20.9909C30.184 20.9909 31.0552 19.6714 33.47 20.3184C35.8849 20.9655 35.9796 22.5438 35.9796 22.5438" stroke="#EDC16F" stroke-linecap="round"/>
<path d="M29.9902 13.7254C29.9902 13.7254 31.0618 13.2351 32.9937 13.7527C34.9255 14.2703 35.7858 15.2783 35.7858 15.2783" stroke="#EDC16F" stroke-linecap="round"/>
<path d="M13.1944 15.5418C13.1944 15.5418 13.8773 14.5813 15.8091 14.0637C17.741 13.5461 18.9899 13.9889 18.9899 13.9889" stroke="#EDC16F" stroke-linecap="round"/>
</svg>
