<svg width="47" height="47" viewBox="0 0 47 47" fill="none" xmlns="http://www.w3.org/2000/svg">
<circle cx="23.5" cy="23.5" r="23" stroke="#F3D138"/>
<path d="M25 25C25 25 26 26.5 26 27.5C26 28.5 25 29 25 29" stroke="#F3D138" stroke-linecap="round"/>
<path d="M32 34.5C32 34.5 30 32 24 32C18 32 16 34.5 16 34.5" stroke="#F3D138" stroke-linecap="round"/>
<path d="M13.999 22.0747H18.999L18.499 25.0747H14.499L13.999 22.0747Z" fill="#F3D138"/>
<path d="M13.999 21.5747H19.499" stroke="#F3D138"/>
<path d="M28.999 22.0747H33.999L33.499 25.0747H29.499L28.999 22.0747Z" fill="#F3D138"/>
<path d="M28.999 21.5747H34.499" stroke="#F3D138"/>
<path d="M29.0613 19.6557C31.4287 17.8484 32.4629 17.8385 34.8786 17.8385" stroke="#F3D138" stroke-linecap="round"/>
<path d="M12.9999 17.575C15.9541 17.3521 16.499 17.0747 19.5835 19.5665" stroke="#F3D138" stroke-linecap="round"/>
</svg>
