<svg width="47" height="47" viewBox="0 0 47 47" fill="none" xmlns="http://www.w3.org/2000/svg">
<circle cx="23.5" cy="23.5" r="23" stroke="#826260"/>
<path d="M12.0622 22.4215C12.8 22.1529 14.2674 21.7883 15.6083 21.6826C16.2807 21.6297 16.8845 21.6454 17.3365 21.751C17.8029 21.86 17.9797 22.0306 18.0344 22.1808C18.0963 22.3513 18.0643 22.6485 17.7887 23.1047C17.5245 23.5421 17.095 24.0247 16.5786 24.4971C15.5387 25.4483 14.2607 26.2573 13.565 26.5105C12.2677 26.9827 10.8331 26.3136 10.3608 25.0163C10.1302 24.3829 10.2265 23.8862 10.5061 23.4825C10.8026 23.0545 11.3398 22.6844 12.0622 22.4215Z" fill="#826260" stroke="#826260"/>
<path d="M33.6991 26.285C32.999 26.0302 31.7124 25.2372 30.667 24.3053C30.1472 23.842 29.7155 23.3683 29.4497 22.9384C29.1728 22.4902 29.1411 22.199 29.2024 22.0305C29.2615 21.868 29.4476 21.689 29.9047 21.5628C30.3494 21.44 30.9425 21.4009 31.6019 21.4281C32.9195 21.4825 34.3574 21.7951 35.0843 22.0596C35.7967 22.3189 36.3711 22.721 36.7018 23.1918C37.0193 23.644 37.1274 24.1752 36.9034 24.7908C36.4312 26.0882 34.9965 26.7572 33.6991 26.285Z" fill="#826260" stroke="#826260"/>
<path d="M25 25C25 25 26 26.5 26 27.5C26 28.5 25 29 25 29" stroke="#826260" stroke-linecap="round"/>
<path d="M34.9468 18.2941C34.9468 18.2941 33.8515 18.5183 32.4026 18.1301C30.9537 17.7418 30.1172 17 30.1172 17" stroke="#826260" stroke-linecap="round"/>
<path d="M17.8296 17.0007C17.8296 17.0007 16.9931 17.7425 15.5442 18.1307C14.0953 18.5189 12.9999 18.2948 12.9999 18.2948" stroke="#826260" stroke-linecap="round"/>
<line x1="16.5" y1="34.5" x2="31.5" y2="34.5" stroke="#826260" stroke-linecap="round"/>
<circle cx="24" cy="25" r="21" fill="#826260" fill-opacity="0.15"/>
</svg>
