<svg width="49" height="47" viewBox="0 0 49 47" fill="none" xmlns="http://www.w3.org/2000/svg">
<circle cx="25.5" cy="23.5" r="23" stroke="#988FBF"/>
<path d="M26 24.3266C26 24.3266 27.5 23.3264 27.5 24.8266C27.5 26.3267 26.5 26.8267 26.5 26.8267" stroke="#988FBF" stroke-linecap="round"/>
<ellipse cx="39.5" cy="26.5002" rx="2.5" ry="1.5" fill="#988FBF" fill-opacity="0.5"/>
<ellipse cx="12.5" cy="26.5002" rx="2.5" ry="1.5" fill="#988FBF" fill-opacity="0.5"/>
<line x1="5.2959" y1="1.5" x2="5.2959" y2="5.5" stroke="#988FBF" stroke-linecap="round"/>
<line x1="7.17334" y1="3.5" x2="3.37742" y2="3.5" stroke="#988FBF" stroke-linecap="round"/>
<line x1="1.45898" y1="5.5" x2="1.45898" y2="7.5" stroke="#988FBF" stroke-linecap="round"/>
<line x1="2.37744" y1="6.5" x2="0.49989" y2="6.5" stroke="#988FBF" stroke-linecap="round"/>
<path d="M21 21.4221C21 21.4221 20.5 23.4221 18 23.4221C15.5 23.4221 15 21.4221 15 21.4221" stroke="#988FBF" stroke-linecap="round"/>
<path d="M37 21.4221C37 21.4221 36.5 23.4221 34 23.4221C31.5 23.4221 31 21.4221 31 21.4221" stroke="#988FBF" stroke-linecap="round"/>
<path d="M32.1499 17.7772C32.1499 17.7772 32.9864 17.0354 34.4353 16.6471C35.8842 16.2589 36.9795 16.4831 36.9795 16.4831" stroke="#988FBF" stroke-linecap="round"/>
<path d="M15.0327 16.4837C15.0327 16.4837 16.128 16.2596 17.5769 16.6478C19.0258 17.036 19.8623 17.7778 19.8623 17.7778" stroke="#988FBF" stroke-linecap="round"/>
<path d="M16 30C16 30 18 34.5 26 34.5C34 34.5 36 30 36 30" stroke="#988FBF" stroke-linecap="round"/>
</svg>
