<svg width="47" height="47" viewBox="0 0 47 47" fill="none" xmlns="http://www.w3.org/2000/svg">
<circle cx="23.5" cy="23.5" r="23" stroke="#23508F"/>
<circle cx="16" cy="21.6235" r="3" fill="#23508F"/>
<circle cx="32" cy="21.6235" r="3" fill="#23508F"/>
<path d="M25 24C25 24 26 25.5 26 26.5C26 27.5 25 28 25 28" stroke="#23508F" stroke-linecap="round"/>
<path d="M31.9902 14.7254C31.9902 14.7254 33.0618 14.2351 34.9937 14.7527C36.9255 15.2703 37.7858 16.2783 37.7858 16.2783" stroke="#23508F" stroke-linecap="round"/>
<path d="M11.1944 16.5418C11.1944 16.5418 11.8773 15.5813 13.8091 15.0637C15.741 14.5461 16.9899 14.9889 16.9899 14.9889" stroke="#23508F" stroke-linecap="round"/>
<path d="M35 26C35.0905 26 35.3633 26 35.7964 26.0226C36.0034 26.0452 36.1844 26.0905 36.4811 26.1138C36.7779 26.1371 37.185 26.1371 37.6045 26.1371" stroke="#23508F" stroke-opacity="0.15" stroke-width="5" stroke-linecap="round"/>
<path d="M11 26C11.0905 26 11.3633 26 11.7964 26.0226C12.0034 26.0452 12.1844 26.0905 12.4811 26.1138C12.7779 26.1371 13.185 26.1371 13.6045 26.1371" stroke="#23508F" stroke-opacity="0.15" stroke-width="5" stroke-linecap="round"/>
<path d="M14.0312 24.6602C14.0983 24.7955 14.1816 24.9137 14.2578 25.0117C14.4163 25.2157 14.654 25.465 14.8242 25.6611C15.2068 26.102 15.5 26.5432 15.5 27.1123C15.5 27.4834 15.4184 27.734 15.3154 27.9062C15.2122 28.0789 15.0708 28.2013 14.9102 28.29C14.5731 28.4761 14.1762 28.5 14.002 28.5C13.803 28.5 13.4099 28.4926 13.0752 28.3242C12.9174 28.2448 12.7811 28.1334 12.6816 27.9727C12.5821 27.8118 12.5 27.5696 12.5 27.1982C12.5 26.4969 12.9922 25.6751 13.5625 25.0791C13.734 24.9 13.8965 24.7598 14.0312 24.6602Z" fill="white" stroke="#23508F"/>
<path d="M33.9688 24.6602C33.9017 24.7955 33.8184 24.9137 33.7422 25.0117C33.5837 25.2157 33.346 25.465 33.1758 25.6611C32.7932 26.102 32.5 26.5432 32.5 27.1123C32.5 27.4834 32.5816 27.734 32.6846 27.9062C32.7878 28.0789 32.9292 28.2013 33.0898 28.29C33.4269 28.4761 33.8238 28.5 33.998 28.5C34.197 28.5 34.5901 28.4926 34.9248 28.3242C35.0826 28.2448 35.2189 28.1334 35.3184 27.9727C35.4179 27.8118 35.5 27.5696 35.5 27.1982C35.5 26.4969 35.0078 25.6751 34.4375 25.0791C34.266 24.9 34.1035 24.7598 33.9688 24.6602Z" fill="white" stroke="#23508F"/>
<path d="M15 35C15 35 17.125 32.5 19.5 32.5C21.875 32.5 24.5 34 24.5 34C24.5 34 27.125 32.5 29.5 32.5C31.875 32.5 34 35 34 35" stroke="#23508F" stroke-linecap="round"/>
</svg>
