<svg width="47" height="47" viewBox="0 0 47 47" fill="none" xmlns="http://www.w3.org/2000/svg">
<circle cx="23.5" cy="23.5" r="23" stroke="#60636B"/>
<path d="M25 24C25 24 26 25.5 26 26.5C26 27.5 25 28 25 28" stroke="#60636B" stroke-linecap="round"/>
<path d="M13 21H19" stroke="#60636B" stroke-linecap="round"/>
<path d="M30 21H36" stroke="#60636B" stroke-linecap="round"/>
<path d="M36.5785 15.7221C36.5785 15.7221 35.1209 16.0203 33.1929 15.5037C31.2648 14.9871 30.1517 14 30.1517 14" stroke="#60636B" stroke-linecap="round"/>
<path d="M17.4264 14.7221C17.4264 14.7221 16.3133 15.7092 14.3853 16.2258C12.4572 16.7424 10.9997 16.4441 10.9997 16.4441" stroke="#60636B" stroke-linecap="round"/>
<path d="M23.4844 31.5C25.5134 31.5016 27.3038 31.6361 28.5781 32.126C29.2105 32.3691 29.6846 32.6881 30.001 33.0938C30.3122 33.4928 30.5 34.013 30.5 34.7158C30.4999 35.6727 30.2899 36.0808 30.0703 36.2666C29.8425 36.4592 29.4585 36.5408 28.791 36.4805C28.1304 36.4207 27.3537 36.2418 26.415 36.0635C25.4979 35.8892 24.4664 35.7246 23.3818 35.7246C22.4309 35.7246 21.5277 35.7968 20.7334 35.8574C19.9256 35.9191 19.2508 35.9675 18.708 35.9336C18.1532 35.899 17.8565 35.7831 17.7031 35.6279C17.5701 35.4932 17.4439 35.2208 17.5254 34.585C17.6094 33.9297 17.7731 33.4867 18 33.167C18.2234 32.8523 18.5362 32.6164 18.9902 32.4229C19.4538 32.2253 20.0465 32.0802 20.8096 31.9395C21.5651 31.8001 22.4356 31.6732 23.4844 31.5Z" stroke="#60636B"/>
<path d="M19 21C19 23.2091 17.6569 25 16 25C14.3431 25 13 23.2091 13 21C13 21 14.3431 21 16 21C17.6569 21 19 21 19 21Z" fill="#60636B" fill-opacity="0.95"/>
<path d="M36 21C36 23.2091 34.6569 25 33 25C31.3431 25 30 23.2091 30 21C30 21 31.3431 21 33 21C34.6569 21 36 21 36 21Z" fill="#60636B" fill-opacity="0.85"/>
<path d="M40.042 3.48596L39.0001 9.39481" stroke="#60636B" stroke-linecap="round"/>
<path d="M42.0625 3L40.326 12.8481" stroke="#60636B" stroke-linecap="round"/>
<path d="M43.6045 5.47754L42.389 12.3712" stroke="#60636B" stroke-linecap="round"/>
</svg>
