<svg width="47" height="47" viewBox="0 0 47 47" fill="none" xmlns="http://www.w3.org/2000/svg">
<circle cx="23.5" cy="23.5" r="23" stroke="#26445D"/>
<path d="M32 37C32 37 30 33 24 33C18 33 16 35.5 16 35.5" stroke="#26445D" stroke-linecap="round"/>
<circle cx="16" cy="21.6235" r="2.5" fill="#26445D" stroke="#26445D"/>
<circle cx="32" cy="21.6235" r="2.5" fill="#26445D" stroke="#26445D"/>
<path d="M34.96 16.294C34.96 16.294 33.8646 16.5182 32.4158 16.1299C30.9669 15.7417 30.1303 14.9999 30.1303 14.9999" stroke="#26445D" stroke-linecap="round"/>
<path d="M13 16.4836C13 16.4836 14.0953 16.2594 15.5442 16.6477C16.9931 17.0359 17.8296 17.7777 17.8296 17.7777" stroke="#26445D" stroke-linecap="round"/>
<path d="M25 24C25 24 26 25.5 26 26.5C26 27.5 25 28 25 28" stroke="#26445D" stroke-linecap="round"/>
</svg>
