<svg width="47" height="47" viewBox="0 0 47 47" fill="none" xmlns="http://www.w3.org/2000/svg">
<circle cx="23.5" cy="23.5" r="23" stroke="#737774"/>
<path d="M25 25C25 25 26 26.5 26 27.5C26 28.5 25 29 25 29" stroke="#737774" stroke-linecap="round"/>
<path d="M35.77 18.9218C35.77 18.9218 34.654 18.8549 33.355 18.1049C32.0559 17.3549 31.4399 16.4218 31.4399 16.4218" stroke="#737774" stroke-linecap="round"/>
<path d="M17.5195 16.422C17.5195 16.422 16.9035 17.355 15.6045 18.105C14.3054 18.855 13.1894 18.922 13.1894 18.922" stroke="#737774" stroke-linecap="round"/>
<circle cx="16" cy="22" r="2.5" fill="#737774" stroke="#737774"/>
<circle cx="32" cy="22" r="2.5" fill="#737774" stroke="#737774"/>
<path d="M17 33C17 33 17.4667 32 24 32C30.5333 32 31 33 31 33" stroke="#737774" stroke-linecap="round"/>
<path d="M22 34H24H26" stroke="#737774" stroke-linecap="round"/>
<path d="M18.9224 24.0691C20.0489 24.0691 21.9904 24.003 22.5917 23.9524C23.4574 23.8796 24.8603 23.9349 25.5782 24.0521C26.0599 24.0691 26.4314 24.1021 26.9285 24.1522C27.3265 24.1692 28.0205 24.1692 28.6353 24.1692" stroke="#737774" stroke-opacity="0.15" stroke-width="5" stroke-linecap="round"/>
</svg>
