<svg width="47" height="47" viewBox="0 0 47 47" fill="none" xmlns="http://www.w3.org/2000/svg">
<circle cx="23.5" cy="23.5" r="23" stroke="#796BA7"/>
<path d="M25 24C25 24 26 25.5 26 26.5C26 27.5 25 28 25 28" stroke="#796BA7" stroke-linecap="round"/>
<path d="M13 17.5C13 17.5 16.3143 16.1644 17.1803 15.6644C18.0464 15.1644 19.0622 14 19.0622 14" stroke="#796BA7" stroke-linecap="round"/>
<path d="M35.502 17.5249C35.502 17.5249 31.9379 16.6219 31.0719 16.1219C30.2058 15.6219 29.4398 14.0249 29.4398 14.0249" stroke="#796BA7" stroke-linecap="round"/>
<path d="M23.5 32.5C25.6024 32.5 27.3852 32.5053 28.6504 32.9131C29.2668 33.1118 29.7158 33.3946 30.0146 33.7822C30.3109 34.1666 30.5 34.7069 30.5 35.5C30.5 35.8374 30.3675 36.1113 30.084 36.3564C29.784 36.6158 29.3145 36.8395 28.6699 37.0176C27.3816 37.3735 25.564 37.5 23.5 37.5C21.4298 37.5 19.8791 37.3723 18.8574 37.0264C18.3531 36.8556 18.0181 36.6445 17.8105 36.4062C17.6123 36.1787 17.5 35.8925 17.5 35.5C17.5 34.7291 17.9448 33.9987 18.9424 33.4355C19.9493 32.8672 21.4804 32.5 23.5 32.5Z" stroke="#796BA7"/>
<circle cx="16" cy="22" r="2.5" fill="#796BA7" stroke="#796BA7"/>
<circle cx="32" cy="22" r="2.5" fill="#796BA7" stroke="#796BA7"/>
</svg>
