<svg width="18" height="14" viewBox="0 0 18 14" fill="none" xmlns="http://www.w3.org/2000/svg">
<path d="M14.3654 9.23855L17.2214 6.38615C17.3091 6.29852 17.4124 6.25471 17.5312 6.25471C17.6501 6.25471 17.7594 6.29823 17.8591 6.38526C17.9582 6.47229 18.005 6.5787 17.9996 6.70448C17.9936 6.82966 17.9467 6.93607 17.8591 7.0237L14.8743 9.98608C14.729 10.1303 14.5558 10.2025 14.3546 10.2025C14.1529 10.2025 13.9794 10.1303 13.8341 9.98608L12.7632 8.91844C12.6755 8.83141 12.6287 8.72888 12.6227 8.61084C12.6167 8.49281 12.6635 8.38432 12.7632 8.28537C12.8508 8.19834 12.9571 8.15571 13.082 8.1575C13.2069 8.15929 13.3132 8.20191 13.4008 8.28537L14.3654 9.23855ZM7.06473 13.307C5.69574 12.0629 4.55521 10.992 3.64315 10.0943C2.73169 9.19653 2.00726 8.39803 1.46987 7.69879C0.932478 6.99955 0.553002 6.35993 0.331441 5.77991C0.11048 5.19989 0 4.61302 0 4.01929C0 2.88191 0.389083 1.92783 1.16725 1.15705C1.94541 0.386281 2.90731 0.000894104 4.05295 0.000894104C4.84552 0.000894104 5.58856 0.202082 6.28207 0.604458C6.97557 1.00683 7.58351 1.59192 8.10589 2.35971C8.62827 1.59192 9.23621 1.00683 9.92972 0.604458C10.6232 0.202082 11.3663 0.000596113 12.1588 0C13.2018 0 14.0868 0.321901 14.814 0.965702C15.5417 1.6095 15.986 2.41098 16.1469 3.37012H15.2211C15.0782 2.6369 14.7209 2.04079 14.1493 1.58178C13.5777 1.12278 12.9142 0.893275 12.1588 0.893275C11.4281 0.893275 10.7646 1.09834 10.1684 1.50846C9.57276 1.91859 9.00595 2.53914 8.46795 3.37012H7.74383C7.19743 2.52782 6.62491 1.90458 6.02628 1.50042C5.42764 1.09625 4.76987 0.894169 4.05295 0.894169C3.17451 0.894169 2.42937 1.19133 1.81752 1.78566C1.20628 2.38058 0.900654 3.12512 0.900654 4.01929C0.900654 4.52241 1.00573 5.03298 1.21588 5.551C1.42604 6.06962 1.80131 6.66603 2.3417 7.34023C2.88209 8.01443 3.61763 8.80667 4.54831 9.71693C5.47898 10.6266 6.66484 11.7303 8.10589 13.028C8.56522 12.6167 9.01735 12.2105 9.46228 11.8093C9.9066 11.4075 10.3038 11.0406 10.6538 10.7086L10.7529 10.8069L10.9754 11.0278L11.1978 11.2486L11.2969 11.347C10.9427 11.679 10.5482 12.0391 10.1134 12.4272C9.67813 12.8146 9.23651 13.2143 8.78859 13.6262L8.59224 13.8051C8.46195 13.935 8.29983 14 8.10589 14C7.91195 14 7.74983 13.935 7.61954 13.8051L7.06473 13.307Z" fill="#00C8FF"/>
</svg>
