<svg width="18" height="14" viewBox="0 0 18 14" fill="none" xmlns="http://www.w3.org/2000/svg">
<path d="M7.31279e-06 4.05033C7.31279e-06 2.90416 0.394108 1.94272 1.18231 1.16599C1.97051 0.389264 2.94481 0.000901009 4.10522 0.000901009C4.90802 0.000901009 5.66064 0.203643 6.36309 0.609126C7.06554 1.01461 7.68132 1.60421 8.21043 2.37793C8.73955 1.60421 9.35533 1.01461 10.0578 0.609126C10.7602 0.203643 11.5129 0.000600716 12.3156 0C13.3283 0 14.198 0.298255 14.9247 0.894766C15.6521 1.49128 16.1083 2.24488 16.2931 3.15556C16.3296 3.27691 16.3166 3.39044 16.2539 3.49617C16.1919 3.60189 16.0994 3.67248 15.9766 3.70792C15.8537 3.74336 15.7391 3.73075 15.6327 3.67007C15.5262 3.6094 15.4545 3.51839 15.4174 3.39705C15.2726 2.65817 14.9108 2.05745 14.3318 1.5949C13.7528 1.13235 13.0807 0.901074 12.3156 0.901074C11.5579 0.901074 10.8755 1.12544 10.2685 1.57418C9.66155 2.02291 9.13912 2.56686 8.70124 3.20602C8.6465 3.29613 8.57504 3.3604 8.48685 3.39885C8.39867 3.4373 8.30531 3.45682 8.20679 3.45742C8.10765 3.45742 8.0149 3.43519 7.92854 3.39074C7.84218 3.34629 7.77224 3.28471 7.71872 3.20602C7.28144 2.56626 6.75932 2.02231 6.15235 1.57418C5.54539 1.12604 4.86301 0.901675 4.10522 0.901074C3.21545 0.901074 2.4607 1.19933 1.84097 1.79584C1.22123 2.39235 0.911669 3.14385 0.912277 4.05033C0.912277 4.55613 1.01871 5.06944 1.23157 5.59026C1.44443 6.11108 1.82455 6.7124 2.37191 7.39421C2.91927 8.07602 3.66429 8.87528 4.60697 9.79197C5.54965 10.7087 6.7508 11.8209 8.21043 13.1286L10.4683 11.0769C10.5687 10.9928 10.6796 10.9547 10.8013 10.9625C10.9229 10.9703 11.0254 11.0177 11.1087 11.1048C11.2091 11.204 11.2556 11.3157 11.2483 11.44C11.241 11.5644 11.185 11.6686 11.0804 11.7527L8.87548 13.7576C8.77817 13.8501 8.67143 13.9138 8.55527 13.9486C8.43911 13.9835 8.32264 14.0006 8.20587 14C8.0891 13.9994 7.97416 13.9823 7.86103 13.9486C7.74791 13.915 7.6427 13.8495 7.54539 13.7522C6.25301 12.5856 5.13092 11.55 4.17911 10.6453C3.22731 9.74061 2.44367 8.91282 1.8282 8.16193C1.21272 7.41103 0.753846 6.70489 0.451581 6.0435C0.149315 5.38211 -0.00120905 4.71772 7.31279e-06 4.05033ZM14.35 8.80349H12.0693C11.9404 8.80349 11.8324 8.76024 11.7455 8.67374C11.6579 8.58723 11.6141 8.48001 11.6141 8.35205C11.6141 8.2241 11.6579 8.11717 11.7455 8.03127C11.8331 7.94537 11.9413 7.90242 12.0702 7.90242H14.3509V5.64973C14.3509 5.52178 14.3947 5.41485 14.4823 5.32895C14.5699 5.24245 14.6781 5.1992 14.8071 5.1992C14.9366 5.1992 15.0449 5.24245 15.1318 5.32895C15.2188 5.41545 15.2626 5.52238 15.2632 5.64973V7.90242H17.5439C17.6728 7.90242 17.7811 7.94567 17.8686 8.03217C17.9562 8.11868 18 8.2259 18 8.35386C18 8.48181 17.9562 8.58874 17.8686 8.67464C17.7811 8.76054 17.6728 8.80349 17.5439 8.80349H15.2632V11.0562C15.2632 11.1841 15.2194 11.2911 15.1318 11.377C15.0442 11.4635 14.9357 11.5067 14.8061 11.5067C14.6766 11.5067 14.5683 11.4635 14.4814 11.377C14.3944 11.2905 14.3509 11.1835 14.3509 11.0562L14.35 8.80349Z" fill="#FF0088"/>
</svg>
