<svg width="13" height="24" viewBox="0 0 13 24" fill="none" xmlns="http://www.w3.org/2000/svg">
<path d="M2.01576 12.0027L12.6968 22.2939C12.8998 22.4913 13.0004 22.727 12.9986 23.0009C12.9958 23.2739 12.8925 23.5087 12.6885 23.7052C12.4845 23.9017 12.2404 24 11.9561 24C11.6718 24 11.4277 23.9022 11.2237 23.7065L0.645153 13.518C0.421796 13.3019 0.25843 13.0618 0.155058 12.7977C0.0516861 12.5318 0 12.2664 0 12.0014C0 11.7364 0.0516861 11.4713 0.155058 11.2063C0.25843 10.9413 0.421796 10.7012 0.645153 10.486L11.2223 0.290849C11.4263 0.0943174 11.6718 -0.00261425 11.9589 5.35952e-05C12.245 0.00272144 12.4905 0.102321 12.6954 0.298852C12.9003 0.495384 13.0018 0.730599 13 1.0045C13 1.27751 12.8984 1.51272 12.6954 1.71014L2.01576 12.0027Z" fill="black"/>
</svg>
