<svg width="16" height="18" viewBox="0 0 16 18" fill="none" xmlns="http://www.w3.org/2000/svg">
<path fill="currentColor" stroke-width="1.5" d="M1.615 18C1.155 18 0.771 17.848 0.463 17.5439C0.154333 17.2391 0 16.8596 0 16.4055V3.79727C0 3.3431 0.154333 2.96396 0.463 2.65986C0.771 2.35511 1.155 2.20273 1.615 2.20273H3.385V0.532171C3.385 0.378805 3.436 0.251769 3.538 0.151061C3.63933 0.0503537 3.76767 0 3.923 0C4.07833 0 4.207 0.0503537 4.309 0.151061C4.411 0.251769 4.462 0.378805 4.462 0.532171V2.20273H11.615V0.494652C11.615 0.353793 11.663 0.236301 11.759 0.142175C11.855 0.0480501 11.9737 0.00065822 12.115 0C12.2577 0 12.3767 0.0470626 12.472 0.141188C12.5673 0.235313 12.615 0.352806 12.615 0.493665V2.20273H14.385C14.845 2.20273 15.229 2.35511 15.537 2.65986C15.8457 2.96396 16 3.3431 16 3.79727V16.4055C16 16.8596 15.846 17.2388 15.538 17.5429C15.2293 17.8476 14.845 18 14.385 18H1.615ZM1.615 17.0127H14.385C14.5383 17.0127 14.6793 16.9495 14.808 16.8231C14.936 16.6961 15 16.5569 15 16.4055V7.74659H1V16.4055C1 16.5569 1.064 16.6961 1.192 16.8231C1.32067 16.9495 1.46167 17.0127 1.615 17.0127Z" />
</svg>
