<svg width="18" height="18" viewBox="0 0 18 18" fill="none" xmlns="http://www.w3.org/2000/svg">
<path d="M15.1875 5.6252C15.9014 5.62538 16.5885 5.897 17.1095 6.38499C17.6305 6.87299 17.9464 7.54084 17.9932 8.25316L18 8.43766V15.1875C17.9998 15.9014 17.7282 16.5885 17.2402 17.1095C16.7522 17.6305 16.0843 17.9464 15.372 17.9932L15.1875 18H8.43762C7.72357 18.0001 7.03621 17.7286 6.51497 17.2406C5.99372 16.7526 5.67762 16.0846 5.63078 15.372L5.62515 15.1875V8.43766C5.62504 7.72361 5.89654 7.03625 6.38456 6.51501C6.87259 5.99377 7.54061 5.67767 8.25312 5.63083L8.43762 5.6252H15.1875ZM15.1875 6.75018H8.43762C8.01813 6.7502 7.61369 6.90647 7.30316 7.1885C6.99263 7.47053 6.79829 7.85811 6.75801 8.27566L6.75014 8.43766V15.1875C6.75016 15.607 6.90642 16.0115 7.18846 16.322C7.47049 16.6325 7.85807 16.8269 8.27562 16.8671L8.43762 16.875H15.1875C15.607 16.875 16.0115 16.7187 16.322 16.4367C16.6325 16.1547 16.8269 15.7671 16.8671 15.3495L16.875 15.1875V8.43766C16.875 8.01817 16.7187 7.61373 16.4367 7.3032C16.1547 6.99268 15.7671 6.79833 15.3495 6.75806L15.1875 6.75018ZM11.9948 1.90714L12.0488 2.08376L12.6957 4.50022H11.5302L10.9621 2.37513C10.8535 1.97002 10.5979 1.61989 10.2451 1.39298C9.89239 1.16608 9.46779 1.07866 9.05411 1.14777L8.89549 1.18152L2.37394 2.92974C1.96905 3.0386 1.61918 3.29429 1.39249 3.647C1.16581 3.99972 1.07855 4.42418 1.14771 4.83771L1.18146 4.99746L2.92969 11.5167C3.02337 11.8655 3.22649 12.1751 3.50918 12.3999C3.79187 12.6246 4.13923 12.7528 4.50017 12.7655V13.8904C3.92556 13.8784 3.36844 13.6905 2.90382 13.3522C2.4392 13.0139 2.08938 12.5414 1.90145 11.9982L1.84295 11.807L0.0958483 5.28658C-0.088915 4.59708 -0.00458255 3.86312 0.331749 3.23349C0.668081 2.60386 1.23125 2.12568 1.90708 1.89589L2.08482 1.84301L8.60412 0.0959158C9.26322 -0.0807679 9.96408 -0.0118009 10.5761 0.289966C11.1881 0.591732 11.6696 1.10571 11.9307 1.73614L11.9948 1.90714Z" fill="#4C4B4A"/>
</svg>
