<svg width="646" height="210" viewBox="0 0 646 210" fill="none" xmlns="http://www.w3.org/2000/svg">
<path d="M216.384 148.4C217.984 148 222.584 150 219.784 151C211.384 153.8 201.984 154.2 193.384 152C189.584 160.8 183.384 169 173.584 171C162.184 173.4 150.584 167 144.584 157.4C138.584 147.8 136.384 136.2 136.184 125C135.984 119.2 136.584 113.6 137.784 107.8C138.984 103.2 139.984 97.2 143.984 94.2C148.384 90.8 154.984 91.6 159.784 93.6C163.584 95.2 168.384 98.8 163.784 102.2C162.584 103 161.984 105.4 161.584 106.6C160.784 108.8 160.184 111 159.584 113.2C158.384 118 157.384 123 156.984 128C156.384 137.2 156.584 147.2 159.984 156C161.384 159.4 163.184 161.8 165.784 164.2C165.984 164.4 166.384 164.6 166.584 164.6C168.784 164 170.584 164 172.584 162.6C177.584 159.6 181.184 154.2 183.784 148.8C175.584 144.8 168.584 138.4 164.584 129.8C160.584 121.2 160.584 109.8 165.184 101.4C169.384 93.4 178.984 90.4 186.784 95.2C194.784 100.4 197.784 111 198.584 119.8C199.384 130 197.984 140 194.384 149.6C201.584 151.2 209.184 151 216.384 148.4ZM166.584 164.6C165.784 164.8 166.184 164.6 166.584 164.6V164.6ZM185.984 144C188.984 136.2 190.784 127.8 190.784 119.4C190.784 112 190.184 102.4 183.984 97.4C175.784 90.6 169.384 104.2 168.184 110.6C166.784 118.8 168.584 127.8 173.184 134.8C176.384 139.6 180.384 143.2 185.184 145.8C185.384 145.2 185.784 144.6 185.984 144ZM298.402 141C299.002 139.2 304.402 140.4 303.802 142C301.402 149.4 299.002 156.8 295.002 163.6C291.602 169.6 286.602 174.8 279.002 173.6C262.402 170.8 261.002 149.6 261.002 136.2C261.202 128.6 262.002 120.8 262.202 113.2C262.202 110.6 262.202 107.8 262.402 105C262.002 95 259.602 94.6 258.402 95C258.402 95 258.202 95.2 258.002 95.2C255.202 97 252.602 99.8 250.602 102.4C246.402 107.8 243.602 114.2 241.002 120.4C237.002 131 234.202 142 232.202 153.2C231.802 158.4 231.202 163.6 230.002 168.6C228.802 173.4 216.402 170.6 215.202 166.8C212.002 155.2 211.602 143.2 211.402 131.2C211.202 119.4 211.802 107.6 212.602 96C212.802 91.4 222.202 92.4 224.602 92.8C228.202 93.4 234.802 95.6 234.602 100.2C234.202 109 233.802 117.8 233.402 126.6C234.002 125 234.602 123.2 235.202 121.6C239.002 111.8 244.002 100.4 252.602 93.8C256.202 91 261.002 89.6 265.602 90.4C270.802 91.6 275.802 95.6 278.402 100.2C279.802 102.8 281.202 105.2 281.802 108.2C282.602 111.2 283.202 114.4 283.402 117.6C284.202 124.4 284.002 131 284.002 137.6C284.002 144 283.402 150.6 283.002 157C282.802 160 282.602 163 282.602 166C282.602 166.4 282.602 166.8 282.602 167.2C282.602 168 283.602 168.4 284.202 168C287.402 165.6 289.802 161.2 291.602 158C294.402 152.6 296.402 146.8 298.402 141ZM427.396 141C428.196 139.2 433.396 140.4 432.996 142C430.596 149.4 428.196 156.8 424.196 163.6C420.596 169.6 415.596 174.8 408.196 173.6C391.396 170.8 389.996 149.6 390.196 136.2C390.196 128.6 390.996 120.8 391.396 113.2C391.396 110.6 391.196 107.8 391.396 105C390.996 95 388.796 94.6 387.596 95C387.396 95 387.196 95.2 387.196 95.2C384.196 97 381.796 99.8 379.596 102.4C375.396 107.8 372.596 114.2 370.196 120.4C365.396 132.6 362.396 145.4 360.396 158.4C360.396 160.6 360.396 163 360.196 165.4C359.996 170.4 349.396 168.6 347.196 168.2C345.396 167.6 336.796 164.2 338.796 160.8C339.396 148.4 339.596 135.8 339.996 123.4C339.996 117.4 340.196 111.4 340.396 105.4C340.596 101.8 340.796 97.2 338.596 93.8C335.996 94.2 332.396 98 330.996 99.6C329.196 102 327.596 104.4 326.196 107C323.396 112.6 321.796 118.8 320.196 124.8C318.796 130.4 317.396 136.2 316.396 141.8C315.996 150.8 315.596 159.8 313.596 168.6C312.396 173.4 299.996 170.6 298.796 166.8C295.596 155.2 295.196 143.2 294.996 131.2C294.796 119.4 295.396 107.6 296.196 96C296.396 91.4 305.796 92.4 308.196 92.8C311.796 93.4 318.396 95.6 318.196 100.2C317.996 105 317.796 109.8 317.596 114.6C319.396 108.6 321.796 103 325.796 98.4C328.396 95.2 332.196 91.6 336.396 91C340.996 90.2 346.196 91.6 349.996 94.4C359.796 101.6 359.596 117 360.196 128C360.396 129.6 360.396 131.4 360.396 133C361.596 129.2 362.996 125.4 364.396 121.6C368.196 111.8 372.996 100.4 381.596 93.8C385.196 91 390.196 89.6 394.596 90.4C399.996 91.6 404.996 95.6 407.396 100.2C408.796 102.8 410.196 105.2 410.996 108.2C411.796 111.2 412.196 114.4 412.596 117.6C413.196 124.4 413.196 131 413.196 137.6C412.996 144 412.596 150.6 412.196 157C411.996 160 411.596 163 411.796 166C411.796 166.4 411.796 166.8 411.796 167.2C411.796 168 412.596 168.4 413.396 168C416.596 165.6 418.996 161.2 420.596 158C423.396 152.6 425.396 146.8 427.396 141ZM464.493 138.2C464.893 136.6 469.493 137.6 469.093 139C466.693 148.6 462.893 159.6 456.293 167.2C453.493 170.4 449.893 172.6 445.293 172.2C439.493 171.8 434.093 168.4 430.893 163.4C425.093 153.8 424.493 141 424.093 130.2C423.693 118 425.093 105.8 425.693 93.8C425.893 89.2 435.493 90.2 437.893 90.6C441.493 91.2 448.093 93.4 447.893 98C447.693 107.8 446.893 117.4 446.293 127.2C445.493 136.2 444.693 145.4 445.493 154.4C445.893 158.2 446.293 162.4 447.893 165.8C449.693 165 451.293 163.6 452.693 162C458.493 155.6 461.893 146.2 464.493 138.2ZM436.693 89.4C433.093 86.6 413.493 70.8 421.693 61.6C421.893 61.4 422.093 61.2 422.293 61C425.493 57.8 430.293 57.4 434.093 59.8C435.893 61 437.293 62.8 438.093 64.8C438.493 65.4 438.693 66.6 438.893 67.8C439.693 67 440.293 66 441.093 65.2C442.893 63.6 444.893 62 447.293 61C450.493 60 454.493 60.2 457.293 62.2C467.293 72 442.093 87 437.893 89.6C437.493 89.8 437.093 89.6 436.693 89.4ZM547.23 141C547.83 139.2 553.23 140.4 552.63 142C550.23 149.4 547.83 156.8 543.83 163.6C540.43 169.6 535.43 174.8 527.83 173.6C511.23 170.8 509.83 149.6 509.83 136.2C510.03 128.6 510.83 120.8 511.03 113.2C511.03 110.6 511.03 107.8 511.23 105C510.83 95 508.43 94.6 507.23 95C507.23 95 507.03 95.2 506.83 95.2C504.03 97 501.43 99.8 499.43 102.4C495.23 107.8 492.43 114.2 489.83 120.4C485.83 131 483.03 142 481.03 153.2C480.63 158.4 480.03 163.6 478.83 168.6C477.63 173.4 465.23 170.6 464.03 166.8C460.83 155.2 460.43 143.2 460.23 131.2C460.03 119.4 460.63 107.6 461.43 96C461.63 91.4 471.03 92.4 473.43 92.8C477.03 93.4 483.63 95.6 483.43 100.2C483.03 109 482.63 117.8 482.23 126.6C482.83 125 483.43 123.2 484.03 121.6C487.83 111.8 492.83 100.4 501.43 93.8C505.03 91 509.83 89.6 514.43 90.4C519.63 91.6 524.63 95.6 527.23 100.2C528.63 102.8 530.03 105.2 530.63 108.2C531.43 111.2 532.03 114.4 532.23 117.6C533.03 124.4 532.83 131 532.83 137.6C532.83 144 532.23 150.6 531.83 157C531.63 160 531.43 163 531.43 166C531.43 166.4 531.43 166.8 531.43 167.2C531.43 168 532.43 168.4 533.03 168C536.23 165.6 538.63 161.2 540.43 158C543.23 152.6 545.23 146.8 547.23 141ZM639.624 133C640.224 131.4 645.224 132.6 644.824 134C640.424 145.2 636.224 157.6 628.024 166.6C624.224 170.6 619.224 172 614.024 170.4C608.224 168.6 604.824 164.6 602.424 159.2C597.424 147.6 596.824 134.4 596.024 122C596.024 119.8 595.824 117.6 595.824 115.4C594.624 119.4 593.624 123.2 592.424 127C590.224 134.8 588.224 142.4 585.024 149.8C582.624 155.2 579.824 161.8 575.224 165.8C569.824 170.6 561.824 169.4 555.824 166.4C542.624 159.4 540.824 142.4 542.824 129.2C545.024 116 551.424 101.4 563.024 93.8C572.624 87.6 587.024 88.6 595.224 96.4C595.224 78.6 596.024 61 597.424 43.4C597.824 38.8 607.224 39.6 609.824 40.2C613.424 40.8 620.624 43 620.224 47.8C619.224 60.4 618.624 73 618.224 85.8C617.624 107.6 615.824 129.8 617.024 151.8C617.224 156.2 617.024 161.2 618.824 165.2C618.824 165.4 619.024 165.6 619.024 165.6C619.624 165.2 620.624 164.8 621.024 164.6C623.024 163.2 624.424 161.4 625.824 159.6C632.024 151.8 635.824 142.4 639.624 133ZM563.824 162.8C563.824 163 564.024 162.8 564.424 162.8C564.024 162.6 563.624 162.4 563.824 162.8ZM583.824 134.4C586.824 125.8 589.424 117 591.824 108C589.224 107.4 587.024 106.2 586.424 104.6C586.024 103 585.424 101.6 584.424 100.2C584.224 99.6 583.624 99.2 583.024 98.6C582.424 99 581.624 99.2 581.224 99.4C576.624 101.8 573.224 106.6 570.624 111C565.024 120 562.424 130.4 561.624 140.8C561.024 145.8 560.824 151.4 562.024 156.4C562.424 158.8 563.224 160.8 564.824 162.6C565.624 162.4 566.624 161.8 566.624 161.8C576.024 156.6 580.424 144 583.824 134.4Z" fill="currentColor"/>
<g clip-path="url(#clip0_128_1344)">
<path d="M45.0264 71.9419H47.475L49.2329 72.1338L51.0537 72.5176L52.7488 73.0293L54.1301 73.605L55.6997 74.3726L56.767 75.0122L57.7088 75.6519L58.9017 76.5474L59.7806 77.3149L60.4085 77.8906L61.413 78.8501L61.9781 79.4897L62.6687 80.2573L63.2338 80.9609L63.7988 81.7285L64.05 81.6006L64.9289 80.6411L65.7451 79.8735L66.5613 79.1699L67.6914 78.3384L68.6332 77.6987L69.9517 76.9312L71.6468 76.0996L73.1536 75.5239L74.786 75.0122L76.4812 74.6284L78.3019 74.3726L79.0553 74.3086H82.2573L84.0153 74.5005L85.7732 74.8203L87.6567 75.332L89.2263 75.9077L90.7959 76.6113L91.9888 77.251L93.3073 78.0825L94.5002 78.978L95.3164 79.6816L96.0698 80.3853L97.0115 81.3447L97.5766 82.0483L98.3928 83.1357L99.0834 84.2231L99.6485 85.2466L100.339 86.7178L100.779 87.8691L101.218 89.4043L101.595 91.2593L101.783 92.9224V96.3125L101.595 98.1035L101.281 99.8945L100.716 102.197L100.088 104.052L99.5229 105.396L98.7695 106.995L97.8905 108.594L96.9488 110.129L96.0698 111.408L95.1908 112.624L94.3746 113.647L93.8723 114.287L93.1817 115.118L92.6167 115.758L92.1772 116.27L91.4866 117.037L90.6076 117.997L88.4101 120.235L87.9079 120.683L87.4056 121.195L86.9033 121.643L86.0871 122.41L85.3965 122.986L84.6431 123.689L83.9525 124.265L83.1363 124.969L82.2573 125.672L81.19 126.568L79.5576 127.847L78.2391 128.871L77.3602 129.51L75.0999 131.173L73.907 132.005L72.5886 132.9L72.6514 133.476L72.7769 134.372V136.099L72.5258 137.762L71.9607 140.128L71.898 140.896L71.7724 147.165L71.6468 153.817L71.5213 155.16L71.2073 156.759L70.8306 158.039L70.2656 159.574L69.5122 161.301L68.9471 162.132L68.0681 163.028L67.4403 163.476L66.8125 163.859L66.5613 164.883L66.1846 166.034L65.5568 167.25L64.8662 168.145L64.3639 168.657L63.736 169.104L62.7315 169.616L61.9153 169.872L61.1619 170H59.7806L58.525 169.808L57.2065 169.36L56.202 168.785L55.3858 168.081L54.8835 167.505L54.3184 166.61L53.879 165.586L53.6278 164.755L52.6861 164.307L51.7443 163.795L50.8653 163.156L49.9863 162.388L49.2957 161.621L48.7307 160.789L48.2284 159.894L47.7261 158.55L47.2866 156.823L46.9727 155.096L46.7844 153.497L46.7216 152.346V150.747L46.8471 148.892L47.1611 146.461L47.5378 143.902L47.6633 142.367V141.728L47.5378 140.384L46.7844 135.523L46.596 133.924V131.493L46.7216 130.726V130.406L46.2193 129.958L45.4659 129.254L44.9636 128.807L44.1474 128.039L43.5196 127.463L42.5778 126.568L41.5733 125.608L41.071 125.097L40.5688 124.649L39.3131 123.37L38.8108 122.922L36.5506 120.619L36.1111 120.107L34.9182 118.892L34.4787 118.38L33.9764 117.869L33.5369 117.357L32.5952 116.333L32.1557 115.822L31.5906 115.182L31.0256 114.479L30.3977 113.775L29.8327 113.071L29.1421 112.24L28.6398 111.6L27.9492 110.705L27.3213 109.873L26.4424 108.658L25.6889 107.57L24.5588 105.843L23.7426 104.5L22.9892 103.093L22.5497 102.133L21.9847 100.406L21.6708 98.8711L21.5452 97.8477L21.4824 96.2485L21.608 94.3296L21.8591 92.7944L22.2986 91.0034L22.9265 89.1484L23.6799 87.4214L24.4333 85.9502L25.4378 84.2871L26.254 83.1357L26.8818 82.3042L27.4469 81.6006L28.012 80.9609L28.4514 80.4492L30.0838 78.7861L30.7745 78.2104L31.3395 77.6987L32.5952 76.7393L33.5997 76.0356L34.9182 75.2041L36.5506 74.3086L38.1202 73.605L39.627 73.0293L41.3849 72.5176L43.3312 72.1338L45.0264 71.9419ZM45.4031 76.8672L44.0847 76.9951L42.4523 77.3149L40.9455 77.7627L39.627 78.2744L38.0574 79.042L36.7389 79.8096L35.546 80.6411L34.4787 81.4727L33.5997 82.2402L32.7835 83.0078L31.8418 83.9673L31.4023 84.479L30.7117 85.3105L29.9583 86.334L29.0793 87.6772L28.3259 89.0205L27.5725 90.6196L27.0074 92.2188L26.6307 93.6899L26.4424 94.7773L26.3796 95.353V97.4639L26.6307 98.999L27.0702 100.342L27.5725 101.366L28.577 103.093L29.5816 104.628L30.335 105.715L31.2139 106.931L32.5952 108.722L33.4742 109.809L34.2276 110.705L34.7926 111.408L35.546 112.24L35.9855 112.751L36.5506 113.391L37.2412 114.159L37.9946 114.99L38.4341 115.438L38.8736 115.95L40.506 117.613L40.9455 118.125L41.8244 119.02L42.3267 119.468L44.1474 121.323L44.6497 121.771L45.3403 122.474L45.8426 122.922L46.2821 123.37L46.7844 123.817L47.7889 124.777L48.4167 125.353L49.1702 126.056L49.6724 126.504L50.3631 127.144L50.6142 127.335L52.6861 127.016L54.1301 126.888L55.3858 126.824H58.7133L61.0363 126.952L63.3593 127.208L65.1801 127.527L66.7497 127.911L68.2565 128.423L69.3866 128.935L69.6377 128.999L71.6468 127.591L72.7141 126.824L74.9744 125.161L76.2928 124.137L77.2974 123.37L78.3019 122.538L79.1181 121.898L80.1854 121.003L81.0016 120.299L81.6923 119.724L82.3829 119.084L82.8852 118.636L84.1408 117.485L84.957 116.717L85.5221 116.142L86.0244 115.694L87.2172 114.479L87.6567 113.967L88.2846 113.327L88.7241 112.815L89.3519 112.112L89.917 111.408L90.6704 110.513L91.2982 109.681L92.0516 108.658L92.9934 107.25L93.8096 105.907L94.4374 104.756L95.1908 103.221L95.8187 101.558L96.2581 100.086L96.6348 98.3594L96.886 96.5684L96.9488 95.8008V93.498L96.7604 91.835L96.4465 90.3638L95.9442 88.8286L95.4419 87.6772L94.7513 86.4619L94.1235 85.5664L93.5584 84.8628L92.8678 84.0952L92.3028 83.5195L91.6121 82.9438L90.4192 82.0483L89.1008 81.2808L87.6567 80.5771L86.2755 80.0654L84.5803 79.6177L83.1363 79.3618L81.8806 79.2339H79.3693L77.6741 79.4258L75.8533 79.8096L73.7815 80.5132L72.2747 81.2168L70.8934 82.0483L70.0144 82.688L69.3238 83.2637L68.696 83.8394L68.1937 84.2871L67.3147 85.2466L66.6241 86.1421L65.8707 87.2295L65.494 87.7412L65.0545 88.125L64.4894 88.3809L64.2383 88.4448H63.2966L62.6059 88.189L62.0409 87.7412L61.5386 87.0376L60.9735 86.1421L60.3457 85.2466L59.7179 84.415L59.1528 83.7114L58.525 83.0078L58.0855 82.4961L57.0182 81.4087L56.5159 80.9609L55.5741 80.1934L54.5068 79.4258L53 78.5303L51.6187 77.8906L50.1119 77.3789L48.7307 77.0591L47.0983 76.8672H45.4031ZM55.8253 131.685L53.6906 131.813L51.8699 132.069L51.4304 132.197L51.3676 132.325L51.4304 133.604L51.8071 136.291L52.3721 139.937L52.4977 141.344V142.751L52.3721 144.286L52.0582 146.525L51.7443 148.7V149.147L53.3767 150.107L54.5696 150.747L56.1392 151.386L57.2693 151.706L58.1483 151.834H58.9645L59.969 151.642L60.9735 151.13L61.5386 150.875H62.2292L62.7315 151.13L63.0454 151.45L63.2966 151.834L63.4221 152.218V153.177L63.171 153.689L62.8571 154.009L62.292 154.393L61.5386 154.776L60.5341 155.096L59.8434 155.224H57.8343L56.4531 154.968L54.8207 154.457L53.3139 153.817L51.7443 153.049L51.6187 153.113L51.8699 155.032L52.3094 156.951L52.6861 157.911L53.1883 158.614L53.8162 159.254L54.5068 159.702L55.4486 160.149L56.2647 160.405L57.2065 160.597L58.5878 160.725H59.5923L60.9735 160.597L62.5431 160.277L63.8616 159.83L64.7406 159.382L65.2429 158.934L65.9335 157.335L66.4985 155.608L66.7497 154.265L66.8125 153.433L66.938 146.589L67.0008 143.391L66.6869 143.519L65.5568 144.158L63.9872 144.798L62.5431 145.246L61.0363 145.565L59.7179 145.757L58.0855 145.885H57.0182L56.4531 145.693L56.1392 145.438L55.8253 144.862L55.7625 144.67V143.774L56.0136 143.135L56.3275 142.815L56.7042 142.559L56.9554 142.495L59.5295 142.303L61.0991 142.047L62.3548 141.728L63.4221 141.344L64.7406 140.704L65.7451 140L66.4985 139.297L66.938 138.849L67.4403 138.146L67.8798 136.227L67.9426 135.779V134.691L67.7542 133.988L67.4403 133.412L66.4358 132.9L64.8662 132.453L63.2338 132.133L61.2247 131.877L59.7179 131.749L58.211 131.685H55.8253ZM62.6059 165.267L60.7852 165.522L59.9062 165.586H57.8971L58.1483 165.906L59.0272 166.354L59.7179 166.482H60.5341L61.2875 166.354L61.8525 166.098L62.2292 165.842L62.6687 165.395L62.6059 165.267Z" fill="currentColor"/>
<path d="M10.0556 59.1489H10.8091L11.5625 59.4688L13.2576 60.3643L14.9528 61.3877L16.334 62.2832L19.0965 64.1382L20.7289 65.2256L22.1102 66.1211L22.6124 66.6968L22.738 67.0806V67.8481L22.4869 68.4878L22.0474 68.9995L21.6079 69.2554L21.4823 69.3193H20.6661L19.7872 68.8716L18.7198 68.168L16.5224 66.6968L14.8272 65.5454L13.6343 64.7778L12.0647 63.8184L10.9346 63.1787L9.49059 62.4111L8.98832 62.0913L8.73718 61.7715L8.54883 61.2598L8.61161 60.5562L8.92553 59.9165L9.36502 59.4688L9.86729 59.2129L10.0556 59.1489Z" fill="currentColor" />
<path d="M62.2913 39H62.9819L63.4842 39.1919L63.7981 39.5117L64.0492 39.8955L64.3004 41.0469L64.4887 42.582L64.6143 44.7568V48.083L64.5515 51.2173L64.3632 51.793L64.0492 52.2407L63.4842 52.5605L62.9819 52.6885L62.2913 52.6245L61.7262 52.3687L61.2867 51.9209L61.0984 51.4731V44.1172L60.91 42.1343L60.7217 40.7271L60.8472 40.1514L61.224 39.5757L61.7262 39.1919L62.2913 39Z" fill="currentColor"/>
<path d="M78.239 84.479H80.3736L81.7549 84.6709L82.9478 84.9907L84.2662 85.5024L85.3963 86.1421L86.2753 86.7817L87.2171 87.6772L87.8449 88.4448L88.096 88.9565V89.7241L87.8449 90.2358L87.4054 90.6196L86.9031 90.8755L86.652 90.9395H85.8986L85.2708 90.6836L84.7685 90.2358L84.329 89.7241L83.8267 89.2764L82.9478 88.7646L81.9432 88.3809L80.6875 88.125L80.1225 88.061L77.8622 87.9971L77.36 87.7412L76.9833 87.2935L76.7949 86.7817V85.9502L76.9833 85.3745L77.4855 84.7988L77.9878 84.543L78.239 84.479Z" fill="currentColor"/>
<path d="M110.196 104.116H110.95L111.452 104.308L112.456 105.076L113.461 105.651L114.654 106.227L116.224 106.803L118.295 107.442L119.237 107.762L119.677 108.146L119.928 108.658L119.991 108.85V109.681L119.739 110.321L119.363 110.769L118.735 111.088H118.044L116.098 110.513L114.089 109.809L112.456 109.105L111.138 108.402L109.82 107.506L109.129 106.931L108.752 106.419L108.689 106.227V105.523L109.003 104.884L109.568 104.372L110.196 104.116Z" fill="currentColor"/>
<path d="M1.39101 100.214H1.95607L2.58391 100.47L3.58845 100.982L4.71856 101.366L5.84868 101.558L6.47652 101.622L9.55293 101.686L10.118 101.877L10.5575 102.197L10.8086 102.581L10.997 103.349L10.9342 103.988L10.6203 104.628L10.118 105.076L9.80407 105.204H6.5393L5.15805 105.076L3.52567 104.756L2.2072 104.308L1.20266 103.796L0.512037 103.349L0.135334 102.837L0.00976562 102.453V101.75L0.198118 101.174L0.637605 100.598L1.01431 100.342L1.39101 100.214Z" fill="currentColor"/>
<path d="M109.065 62.4111H109.882L110.384 62.667L110.823 63.1787L111.074 63.8823V64.522L110.823 65.2256L110.384 65.6733L109.819 65.9292L108.124 66.5049L106.303 67.2725L104.231 68.2959L103.352 68.6797L102.724 68.7437L102.096 68.5518L101.594 68.168L101.217 67.5923L101.092 67.2725V66.4409L101.343 65.9292L101.845 65.4814L104.294 64.2661L106.177 63.4346L107.872 62.7949L109.065 62.4111Z" fill="currentColor"/>
<path d="M22.6749 128.487H23.24L23.8678 128.743L24.3701 129.19L24.684 129.83L24.7468 130.342L24.5585 130.981L23.9306 132.261L23.1772 133.412L22.6749 134.052L22.1099 134.691L21.5448 135.267L20.6658 135.971L19.9124 136.482L19.5985 136.61L19.0335 136.674L18.4056 136.482L17.7778 135.907L17.4639 135.139V134.436L17.715 133.796L18.2801 133.284L19.159 132.645L19.7869 132.069L20.3519 131.365L20.9798 130.406L21.482 129.382L21.9215 128.871L22.4238 128.551L22.6749 128.487Z" fill="currentColor" />
<path d="M98.016 132.772H98.6439L99.3345 133.028L99.7112 133.348L100.025 133.924L100.088 134.244L100.213 135.651L100.465 136.546L100.779 137.314L101.344 138.146L101.971 138.913L102.16 139.553L102.097 140.192L101.783 140.832L101.218 141.344L100.716 141.536H99.9623L99.3345 141.216L98.6439 140.448L98.016 139.553L97.451 138.529L97.0115 137.314L96.6975 135.971L96.6348 135.459V133.988L96.9487 133.348L97.3254 133.028L97.7021 132.836L98.016 132.772Z" fill="currentColor" />
<path d="M88.159 92.0269H89.038L89.603 92.2827L90.0425 92.7944L90.2309 93.2422L90.2937 93.8818L90.1053 94.6494L89.7286 95.1611L89.1635 95.481L88.9124 95.5449H88.2846L87.7195 95.353L87.28 94.9692L86.9661 94.3296L86.9033 94.0737V93.498L87.0917 92.8584L87.6567 92.2188L88.159 92.0269Z" fill="currentColor"/>
</g>
<defs>
<clipPath id="clip0_128_1344">
<rect width="120" height="131" fill="currentColor" transform="translate(0 39)"/>
</clipPath>
</defs>
</svg>
