<svg width="16" height="16" viewBox="0 0 16 16" fill="none" xmlns="http://www.w3.org/2000/svg">
<path d="M6.43245 3.88976e-08C7.65513 -0.000134388 8.85253 0.348159 9.88438 1.00408C10.9162 1.66 11.7398 2.59638 12.2586 3.70352C12.7774 4.81067 12.97 6.04273 12.8137 7.25538C12.6574 8.46803 12.1589 9.61103 11.3763 10.5505L15.8134 14.9875C15.8903 15.059 15.9466 15.1499 15.9763 15.2507C16.0059 15.3515 16.0078 15.4584 15.9818 15.5602C15.9558 15.6619 15.9028 15.7548 15.8284 15.829C15.754 15.9032 15.661 15.956 15.5591 15.9817C15.4575 16.0078 15.3507 16.006 15.2499 15.9764C15.1492 15.9469 15.0583 15.8909 14.9868 15.8141L10.5498 11.3771C9.75579 12.0382 8.8143 12.4983 7.8049 12.7186C6.7955 12.9388 5.7479 12.9127 4.75071 12.6425C3.75353 12.3723 2.83608 11.8659 2.07599 11.1662C1.3159 10.4664 0.73552 9.5939 0.383945 8.62242C0.0323708 7.65094 -0.0800566 6.60907 0.0561737 5.58495C0.192404 4.56083 0.573284 3.58459 1.1666 2.73879C1.75991 1.893 2.5482 1.20254 3.46479 0.725816C4.38137 0.249095 5.3993 0.00013644 6.43245 3.88976e-08ZM1.16884 6.43323C1.16884 7.12445 1.30499 7.80891 1.56951 8.44751C1.83403 9.08611 2.22175 9.66636 2.71052 10.1551C3.19929 10.6439 3.77954 11.0316 4.41815 11.2961C5.05676 11.5606 5.74122 11.6968 6.43245 11.6968C7.12367 11.6968 7.80813 11.5606 8.44674 11.2961C9.08535 11.0316 9.66561 10.6439 10.1544 10.1551C10.6431 9.66636 11.0309 9.08611 11.2954 8.44751C11.5599 7.80891 11.6961 7.12445 11.6961 6.43323C11.6961 5.03725 11.1415 3.69845 10.1544 2.71134C9.16726 1.72423 7.82844 1.16968 6.43245 1.16968C5.03645 1.16968 3.69763 1.72423 2.71052 2.71134C1.7234 3.69845 1.16884 5.03725 1.16884 6.43323Z" fill="currentColor" strokeWidth="1.5" />
</svg>
