<svg width="17" height="18" viewBox="0 0 17 18" fill="none" xmlns="http://www.w3.org/2000/svg">
<path  fill="currentColor" stroke-width="1.5" d="M6.68663 18L6.33465 15.108C6.02415 15.0113 5.6887 14.86 5.3283 14.654C4.96725 14.4473 4.65999 14.226 4.40654 13.99L1.81337 15.125L0 11.875L2.24119 10.137C2.21267 9.95567 2.18901 9.769 2.17021 9.577C2.15206 9.38567 2.14299 9.19967 2.14299 9.019C2.14299 8.851 2.15206 8.67433 2.17021 8.489C2.18836 8.30367 2.21202 8.095 2.24119 7.863L0 6.125L1.81337 2.913L4.38807 4.03C4.67847 3.78133 4.99285 3.557 5.33122 3.357C5.66829 3.157 5.99661 3.00233 6.31617 2.893L6.68565 0H10.3134L10.6653 2.912C11.0381 3.046 11.3674 3.20033 11.6532 3.375C11.9397 3.54967 12.2343 3.76767 12.5371 4.029L15.1866 2.913L17 6.125L14.6839 7.921C14.7371 8.12767 14.7669 8.317 14.7734 8.489C14.7799 8.66233 14.7831 8.83267 14.7831 9C14.7831 9.15533 14.7766 9.319 14.7637 9.491C14.7514 9.66367 14.7228 9.87233 14.6781 10.117L16.9572 11.875L15.1438 15.125L12.5371 13.971C12.2343 14.2323 11.9297 14.4567 11.6231 14.644C11.3158 14.8313 10.9966 14.9793 10.6653 15.088L10.3134 18H6.68663ZM8.47375 11.5C9.15178 11.5 9.72642 11.2577 10.1977 10.773C10.6689 10.2883 10.9045 9.69733 10.9045 9C10.9045 8.30267 10.6689 7.71167 10.1977 7.227C9.72642 6.74233 9.15178 6.5 8.47375 6.5C7.79183 6.5 7.21622 6.74233 6.74691 7.227C6.27761 7.71167 6.04295 8.30267 6.04295 9C6.04295 9.69733 6.27761 10.2883 6.74691 10.773C7.21622 11.2577 7.79183 11.5 8.47375 11.5Z"/>
</svg>
